solid OpenSCAD_Model
  facet normal -1.09476e-47 1 -4.93038e-32
    outer loop
      vertex -47.6 21.43 -3.17236
      vertex -47.6 21.43 -0.83
      vertex -39.15 21.43 -3.17236
    endloop
  endfacet
  facet normal -1.09476e-47 1 -4.93038e-32
    outer loop
      vertex -39.15 21.43 -3.17236
      vertex -47.6 21.43 -0.83
      vertex -39.15 21.43 -0.83
    endloop
  endfacet
  facet normal -2.22045e-16 1 0
    outer loop
      vertex -47.6 21.43 -3.17236
      vertex -56.05 21.43 -3.17236
      vertex -47.6 21.43 -0.83
    endloop
  endfacet
  facet normal -2.22045e-16 1 0
    outer loop
      vertex -47.6 21.43 -0.83
      vertex -56.05 21.43 -3.17236
      vertex -56.05 21.43 -0.83
    endloop
  endfacet
  facet normal -2.22045e-16 -4.93038e-32 -1
    outer loop
      vertex -47.6 21.43 -3.17236
      vertex -39.15 21.43 -3.17236
      vertex -56.05 21.43 -3.17236
    endloop
  endfacet
  facet normal -2.22045e-16 -4.93038e-32 -1
    outer loop
      vertex -40.6 1 -3.17236
      vertex -39.15 21.43 -3.17236
      vertex -39.15 -16 -3.17236
    endloop
  endfacet
  facet normal -2.22045e-16 -4.93038e-32 -1
    outer loop
      vertex -39.15 -16 -3.17236
      vertex -39.15 21.43 -3.17236
      vertex -38.8892 21.43 -3.17236
    endloop
  endfacet
  facet normal -2.22045e-16 -4.93038e-32 -1
    outer loop
      vertex -39.15 -16 -3.17236
      vertex -38.8892 21.43 -3.17236
      vertex -38.8892 19.8621 -3.17236
    endloop
  endfacet
  facet normal -2.22045e-16 -4.93038e-32 -1
    outer loop
      vertex -39.15 -16 -3.17236
      vertex -38.8892 19.8621 -3.17236
      vertex -36.8203 16.7947 -3.17236
    endloop
  endfacet
  facet normal -2.22045e-16 -4.93038e-32 -1
    outer loop
      vertex -36.8203 16.7947 -3.17236
      vertex -36.7656 16.7561 -3.17236
      vertex -39.15 -16 -3.17236
    endloop
  endfacet
  facet normal -2.22045e-16 -4.93038e-32 -1
    outer loop
      vertex -39.15 -16 -3.17236
      vertex -36.7656 16.7561 -3.17236
      vertex -36.7656 -16.7561 -3.17236
    endloop
  endfacet
  facet normal -2.22045e-16 -4.93038e-32 -1
    outer loop
      vertex -39.15 -16 -3.17236
      vertex -36.7656 -16.7561 -3.17236
      vertex -36.8203 -16.7947 -3.17236
    endloop
  endfacet
  facet normal -2.22045e-16 -4.93038e-32 -1
    outer loop
      vertex -39.15 -16 -3.17236
      vertex -36.8203 -16.7947 -3.17236
      vertex -38.8892 -19.8621 -3.17236
    endloop
  endfacet
  facet normal -2.22045e-16 -4.93038e-32 -1
    outer loop
      vertex -39.15 -16 -3.17236
      vertex -38.8892 -19.8621 -3.17236
      vertex -56.05 21.43 -3.17236
    endloop
  endfacet
  facet normal -2.22045e-16 -4.93038e-32 -1
    outer loop
      vertex -38.8892 -19.8621 -3.17236
      vertex -38.8892 -21.43 -3.17236
      vertex -56.05 21.43 -3.17236
    endloop
  endfacet
  facet normal -2.22045e-16 -4.93038e-32 -1
    outer loop
      vertex -56.05 21.43 -3.17236
      vertex -38.8892 -21.43 -3.17236
      vertex -39.15 -21.43 -3.17236
    endloop
  endfacet
  facet normal -2.22045e-16 -4.93038e-32 -1
    outer loop
      vertex -46.6 5 -3.17236
      vertex -39.15 -16 -3.17236
      vertex -48.6 5 -3.17236
    endloop
  endfacet
  facet normal -2.22045e-16 -4.93038e-32 -1
    outer loop
      vertex -52.6 -1 -3.17236
      vertex -47.6 -21.43 -3.17236
      vertex -56.05 -21.43 -3.17236
    endloop
  endfacet
  facet normal -2.22045e-16 -4.93038e-32 -1
    outer loop
      vertex -56.05 21.43 -3.17236
      vertex -39.15 21.43 -3.17236
      vertex -46.6 7 -3.17236
    endloop
  endfacet
  facet normal -2.22045e-16 -4.93038e-32 -1
    outer loop
      vertex -46.6 5 -3.17236
      vertex -46.6 7 -3.17236
      vertex -39.15 -16 -3.17236
    endloop
  endfacet
  facet normal -2.22045e-16 -4.93038e-32 -1
    outer loop
      vertex -56.05 21.43 -3.17236
      vertex -46.6 7 -3.17236
      vertex -48.6 7 -3.17236
    endloop
  endfacet
  facet normal -2.22045e-16 -4.93038e-32 -1
    outer loop
      vertex -56.05 21.43 -3.17236
      vertex -48.6 7 -3.17236
      vertex -48.6 5 -3.17236
    endloop
  endfacet
  facet normal -2.22045e-16 -4.93038e-32 -1
    outer loop
      vertex -56.05 21.43 -3.17236
      vertex -48.6 5 -3.17236
      vertex -39.15 -16 -3.17236
    endloop
  endfacet
  facet normal -2.22045e-16 -4.93038e-32 -1
    outer loop
      vertex -52.6 -1 -3.17236
      vertex -56.05 -21.43 -3.17236
      vertex -54.6 -1 -3.17236
    endloop
  endfacet
  facet normal -2.22045e-16 -4.93038e-32 -1
    outer loop
      vertex -56.05 21.43 -3.17236
      vertex -47.6 -21.43 -3.17236
      vertex -52.6 1 -3.17236
    endloop
  endfacet
  facet normal -2.22045e-16 -4.93038e-32 -1
    outer loop
      vertex -56.05 21.43 -3.17236
      vertex -52.6 1 -3.17236
      vertex -54.6 1 -3.17236
    endloop
  endfacet
  facet normal -2.22045e-16 -4.93038e-32 -1
    outer loop
      vertex -56.05 21.43 -3.17236
      vertex -54.6 1 -3.17236
      vertex -56.05 -21.43 -3.17236
    endloop
  endfacet
  facet normal -2.22045e-16 -4.93038e-32 -1
    outer loop
      vertex -54.6 1 -3.17236
      vertex -54.6 -1 -3.17236
      vertex -56.05 -21.43 -3.17236
    endloop
  endfacet
  facet normal -2.22045e-16 -4.93038e-32 -1
    outer loop
      vertex -52.6 1 -3.17236
      vertex -47.6 -21.43 -3.17236
      vertex -52.6 -1 -3.17236
    endloop
  endfacet
  facet normal -2.22045e-16 -4.93038e-32 -1
    outer loop
      vertex -40.6 -1 -3.17236
      vertex -39.15 -16 -3.17236
      vertex -42.6 -1 -3.17236
    endloop
  endfacet
  facet normal -2.22045e-16 -4.93038e-32 -1
    outer loop
      vertex -46.6 7 -3.17236
      vertex -39.15 21.43 -3.17236
      vertex -40.6 1 -3.17236
    endloop
  endfacet
  facet normal -2.22045e-16 -4.93038e-32 -1
    outer loop
      vertex -40.6 -1 -3.17236
      vertex -40.6 1 -3.17236
      vertex -39.15 -16 -3.17236
    endloop
  endfacet
  facet normal -2.22045e-16 -4.93038e-32 -1
    outer loop
      vertex -46.6 7 -3.17236
      vertex -40.6 1 -3.17236
      vertex -42.6 1 -3.17236
    endloop
  endfacet
  facet normal -2.22045e-16 -4.93038e-32 -1
    outer loop
      vertex -46.6 7 -3.17236
      vertex -42.6 1 -3.17236
      vertex -42.6 -1 -3.17236
    endloop
  endfacet
  facet normal -2.22045e-16 -4.93038e-32 -1
    outer loop
      vertex -46.6 7 -3.17236
      vertex -42.6 -1 -3.17236
      vertex -39.15 -16 -3.17236
    endloop
  endfacet
  facet normal -2.22045e-16 -4.93038e-32 -1
    outer loop
      vertex -46.6 -7 -3.17236
      vertex -47.6 -21.43 -3.17236
      vertex -48.6 -7 -3.17236
    endloop
  endfacet
  facet normal -2.22045e-16 -4.93038e-32 -1
    outer loop
      vertex -56.05 21.43 -3.17236
      vertex -46.6 -5 -3.17236
      vertex -48.6 -5 -3.17236
    endloop
  endfacet
  facet normal -2.22045e-16 -4.93038e-32 -1
    outer loop
      vertex -56.05 21.43 -3.17236
      vertex -48.6 -5 -3.17236
      vertex -48.6 -7 -3.17236
    endloop
  endfacet
  facet normal -2.22045e-16 -4.93038e-32 -1
    outer loop
      vertex -56.05 21.43 -3.17236
      vertex -48.6 -7 -3.17236
      vertex -47.6 -21.43 -3.17236
    endloop
  endfacet
  facet normal -2.22045e-16 -4.93038e-32 -1
    outer loop
      vertex -46.6 -5 -3.17236
      vertex -56.05 21.43 -3.17236
      vertex -39.15 -21.43 -3.17236
    endloop
  endfacet
  facet normal -2.22045e-16 -4.93038e-32 -1
    outer loop
      vertex -46.6 -7 -3.17236
      vertex -46.6 -5 -3.17236
      vertex -39.15 -21.43 -3.17236
    endloop
  endfacet
  facet normal -2.22045e-16 -4.93038e-32 -1
    outer loop
      vertex -47.6 -21.43 -3.17236
      vertex -46.6 -7 -3.17236
      vertex -39.15 -21.43 -3.17236
    endloop
  endfacet
  facet normal 1 2.22045e-16 -2.22045e-16
    outer loop
      vertex -39.15 -16 -3.17236
      vertex -39.15 21.43 -3.17236
      vertex -39.15 21.43 -0.83
    endloop
  endfacet
  facet normal 1 2.22045e-16 -2.22045e-16
    outer loop
      vertex -39.15 -16 -0.83
      vertex -39.15 -16 -3.17236
      vertex -39.15 21.43 -0.83
    endloop
  endfacet
  facet normal 2.22045e-16 4.93038e-32 1
    outer loop
      vertex -39.15 21.43 -0.83
      vertex -47.6 21.43 -0.83
      vertex -56.05 21.43 -0.83
    endloop
  endfacet
  facet normal 2.22045e-16 4.93038e-32 1
    outer loop
      vertex -48.6 -5 -0.83
      vertex -39.15 21.43 -0.83
      vertex -56.05 -21.43 -0.83
    endloop
  endfacet
  facet normal 2.22045e-16 4.93038e-32 1
    outer loop
      vertex -48.6 7 -0.83
      vertex -39.15 21.43 -0.83
      vertex -56.05 21.43 -0.83
    endloop
  endfacet
  facet normal 2.22045e-16 4.93038e-32 1
    outer loop
      vertex -42.6 1 -0.83
      vertex -39.15 21.43 -0.83
      vertex -47.6 -21.43 -0.83
    endloop
  endfacet
  facet normal 2.22045e-16 4.93038e-32 1
    outer loop
      vertex -39.15 -16 -0.83
      vertex -39.15 21.43 -0.83
      vertex -39.15 -21.43 -0.83
    endloop
  endfacet
  facet normal 2.22045e-16 4.93038e-32 1
    outer loop
      vertex -54.6 1 -0.83
      vertex -48.6 7 -0.83
      vertex -56.05 21.43 -0.83
    endloop
  endfacet
  facet normal 2.22045e-16 4.93038e-32 1
    outer loop
      vertex -46.6 7 -0.83
      vertex -39.15 21.43 -0.83
      vertex -48.6 7 -0.83
    endloop
  endfacet
  facet normal 2.22045e-16 4.93038e-32 1
    outer loop
      vertex -46.6 5 -0.83
      vertex -39.15 21.43 -0.83
      vertex -46.6 7 -0.83
    endloop
  endfacet
  facet normal 2.22045e-16 4.93038e-32 1
    outer loop
      vertex -52.6 -1 -0.83
      vertex -54.6 -1 -0.83
      vertex -56.05 -21.43 -0.83
    endloop
  endfacet
  facet normal 2.22045e-16 4.93038e-32 1
    outer loop
      vertex -56.05 -21.43 -0.83
      vertex -39.15 21.43 -0.83
      vertex -46.6 5 -0.83
    endloop
  endfacet
  facet normal 2.22045e-16 4.93038e-32 1
    outer loop
      vertex -56.05 -21.43 -0.83
      vertex -48.6 5 -0.83
      vertex -48.6 7 -0.83
    endloop
  endfacet
  facet normal 2.22045e-16 4.93038e-32 1
    outer loop
      vertex -56.05 -21.43 -0.83
      vertex -54.6 1 -0.83
      vertex -56.05 21.43 -0.83
    endloop
  endfacet
  facet normal 2.22045e-16 4.93038e-32 1
    outer loop
      vertex -52.6 1 -0.83
      vertex -48.6 7 -0.83
      vertex -54.6 1 -0.83
    endloop
  endfacet
  facet normal 2.22045e-16 4.93038e-32 1
    outer loop
      vertex -52.6 -1 -0.83
      vertex -48.6 7 -0.83
      vertex -52.6 1 -0.83
    endloop
  endfacet
  facet normal 2.22045e-16 4.93038e-32 1
    outer loop
      vertex -40.6 -1 -0.83
      vertex -42.6 -1 -0.83
      vertex -39.15 -21.43 -0.83
    endloop
  endfacet
  facet normal 2.22045e-16 4.93038e-32 1
    outer loop
      vertex -56.05 -21.43 -0.83
      vertex -48.6 7 -0.83
      vertex -52.6 -1 -0.83
    endloop
  endfacet
  facet normal 2.22045e-16 4.93038e-32 1
    outer loop
      vertex -56.05 -21.43 -0.83
      vertex -54.6 -1 -0.83
      vertex -54.6 1 -0.83
    endloop
  endfacet
  facet normal 2.22045e-16 4.93038e-32 1
    outer loop
      vertex -42.6 -1 -0.83
      vertex -42.6 1 -0.83
      vertex -47.6 -21.43 -0.83
    endloop
  endfacet
  facet normal 2.22045e-16 4.93038e-32 1
    outer loop
      vertex -40.6 1 -0.83
      vertex -39.15 21.43 -0.83
      vertex -42.6 1 -0.83
    endloop
  endfacet
  facet normal 2.22045e-16 4.93038e-32 1
    outer loop
      vertex -39.15 -21.43 -0.83
      vertex -39.15 21.43 -0.83
      vertex -40.6 1 -0.83
    endloop
  endfacet
  facet normal 2.22045e-16 4.93038e-32 1
    outer loop
      vertex -39.15 -21.43 -0.83
      vertex -40.6 1 -0.83
      vertex -40.6 -1 -0.83
    endloop
  endfacet
  facet normal 2.22045e-16 4.93038e-32 1
    outer loop
      vertex -39.15 -21.43 -0.83
      vertex -42.6 -1 -0.83
      vertex -47.6 -21.43 -0.83
    endloop
  endfacet
  facet normal 2.22045e-16 4.93038e-32 1
    outer loop
      vertex -48.6 -7 -0.83
      vertex -48.6 -5 -0.83
      vertex -56.05 -21.43 -0.83
    endloop
  endfacet
  facet normal 2.22045e-16 4.93038e-32 1
    outer loop
      vertex -46.6 -5 -0.83
      vertex -39.15 21.43 -0.83
      vertex -48.6 -5 -0.83
    endloop
  endfacet
  facet normal 2.22045e-16 4.93038e-32 1
    outer loop
      vertex -46.6 -7 -0.83
      vertex -39.15 21.43 -0.83
      vertex -46.6 -5 -0.83
    endloop
  endfacet
  facet normal 2.22045e-16 4.93038e-32 1
    outer loop
      vertex -47.6 -21.43 -0.83
      vertex -39.15 21.43 -0.83
      vertex -46.6 -7 -0.83
    endloop
  endfacet
  facet normal 2.22045e-16 4.93038e-32 1
    outer loop
      vertex -47.6 -21.43 -0.83
      vertex -48.6 -7 -0.83
      vertex -56.05 -21.43 -0.83
    endloop
  endfacet
  facet normal 2.22045e-16 4.93038e-32 1
    outer loop
      vertex -46.6 5 -0.83
      vertex -48.6 5 -0.83
      vertex -56.05 -21.43 -0.83
    endloop
  endfacet
  facet normal 2.22045e-16 4.93038e-32 1
    outer loop
      vertex -46.6 -7 -0.83
      vertex -48.6 -7 -0.83
      vertex -47.6 -21.43 -0.83
    endloop
  endfacet
  facet normal -1 -2.22045e-16 2.22045e-16
    outer loop
      vertex -56.05 21.43 -3.17236
      vertex -56.05 -21.43 -3.17236
      vertex -56.05 21.43 -0.83
    endloop
  endfacet
  facet normal -1 -2.22045e-16 2.22045e-16
    outer loop
      vertex -56.05 21.43 -0.83
      vertex -56.05 -21.43 -3.17236
      vertex -56.05 -21.43 -0.83
    endloop
  endfacet
  facet normal 1.09476e-47 -1 4.93038e-32
    outer loop
      vertex -56.05 -21.43 -0.83
      vertex -56.05 -21.43 -3.17236
      vertex -47.6 -21.43 -3.17236
    endloop
  endfacet
  facet normal 1.09476e-47 -1 4.93038e-32
    outer loop
      vertex -47.6 -21.43 -0.83
      vertex -56.05 -21.43 -0.83
      vertex -47.6 -21.43 -3.17236
    endloop
  endfacet
  facet normal 2.22045e-16 -1 0
    outer loop
      vertex -47.6 -21.43 -3.17236
      vertex -39.15 -21.43 -3.17236
      vertex -39.15 -21.43 -0.83
    endloop
  endfacet
  facet normal 2.22045e-16 -1 0
    outer loop
      vertex -47.6 -21.43 -0.83
      vertex -47.6 -21.43 -3.17236
      vertex -39.15 -21.43 -0.83
    endloop
  endfacet
  facet normal -1 1.09476e-47 2.22045e-16
    outer loop
      vertex -39.15 21.43 -6.63469e-15
      vertex -39.15 21.43 -3.17236
      vertex -39.15 21.43 0.637852
    endloop
  endfacet
  facet normal -1 1.09476e-47 2.22045e-16
    outer loop
      vertex -39.15 21.43 0.637852
      vertex -39.15 21.43 -3.17236
      vertex -39.15 -16 -3.17236
    endloop
  endfacet
  facet normal -1 1.09476e-47 2.22045e-16
    outer loop
      vertex -39.15 21.43 0.637852
      vertex -39.15 -16 -3.17236
      vertex -39.15 -16 -0.83
    endloop
  endfacet
  facet normal -1 1.09476e-47 2.22045e-16
    outer loop
      vertex -39.15 21.43 0.637852
      vertex -39.15 -16 -0.83
      vertex -39.15 -21.43 -0.83
    endloop
  endfacet
  facet normal -1 1.09476e-47 2.22045e-16
    outer loop
      vertex -39.15 -21.43 -0.83
      vertex -39.15 -21.43 -3.17236
      vertex -39.15 -21.43 2.88214e-15
    endloop
  endfacet
  facet normal -1 1.09476e-47 2.22045e-16
    outer loop
      vertex -39.15 -21.43 -0.83
      vertex -39.15 -21.43 2.88214e-15
      vertex -39.15 21.43 0.637852
    endloop
  endfacet
  facet normal -1 1.09476e-47 2.22045e-16
    outer loop
      vertex -39.15 21.43 0.637852
      vertex -39.15 -21.43 2.88214e-15
      vertex -39.15 -21.43 0.637852
    endloop
  endfacet
  facet normal 1.09476e-47 -1 4.93038e-32
    outer loop
      vertex -39.15 -21.43 2.88214e-15
      vertex -39.15 -21.43 -3.17236
      vertex -38.8892 -21.43 -3.17236
    endloop
  endfacet
  facet normal 1.09476e-47 -1 4.93038e-32
    outer loop
      vertex -38.8892 -21.43 2.82424e-15
      vertex -39.15 -21.43 2.88214e-15
      vertex -38.8892 -21.43 -3.17236
    endloop
  endfacet
  facet normal 1 2.22045e-16 -4.44089e-16
    outer loop
      vertex -38.8892 -19.8621 0.637852
      vertex -38.8892 -21.43 0.637852
      vertex -38.8892 -21.43 2.82424e-15
    endloop
  endfacet
  facet normal 1 2.22045e-16 -4.44089e-16
    outer loop
      vertex -38.8892 -19.8621 -3.17236
      vertex -38.8892 -19.8621 0.637852
      vertex -38.8892 -21.43 -3.17236
    endloop
  endfacet
  facet normal 1 2.22045e-16 -4.44089e-16
    outer loop
      vertex -38.8892 -21.43 -3.17236
      vertex -38.8892 -19.8621 0.637852
      vertex -38.8892 -21.43 2.82424e-15
    endloop
  endfacet
  facet normal 0.829036 -0.559195 -3.68166e-16
    outer loop
      vertex -36.8203 -16.7947 0.665097
      vertex -37.459 -17.7417 0.637852
      vertex -38.8892 -19.8621 -3.17236
    endloop
  endfacet
  facet normal 0.829036 -0.559195 -3.68166e-16
    outer loop
      vertex -38.8892 -19.8621 -3.17236
      vertex -37.459 -17.7417 0.637852
      vertex -38.8892 -19.8621 0.637852
    endloop
  endfacet
  facet normal 0.829036 -0.559195 -3.68166e-16
    outer loop
      vertex -36.8203 -16.7947 0.665097
      vertex -38.8892 -19.8621 -3.17236
      vertex -36.8203 -16.7947 -3.17236
    endloop
  endfacet
  facet normal 0.577719 -0.816236 -2.56559e-16
    outer loop
      vertex -32.7728 -13.93 0.837742
      vertex -36.8203 -16.7947 0.665097
      vertex -36.8203 -16.7947 -3.17236
    endloop
  endfacet
  facet normal 0.577719 -0.816236 -2.56559e-16
    outer loop
      vertex -32.7728 -13.93 -2.98158
      vertex -32.7728 -13.93 0.837742
      vertex -36.7656 -16.7561 -3.17236
    endloop
  endfacet
  facet normal 0.577719 -0.816236 -2.56559e-16
    outer loop
      vertex -36.7656 -16.7561 -3.17236
      vertex -32.7728 -13.93 0.837742
      vertex -36.8203 -16.7947 -3.17236
    endloop
  endfacet
  facet normal 0.0477272 -4.92476e-32 -0.99886
    outer loop
      vertex -36.7656 16.7561 -3.17236
      vertex -32.7728 13.93 -2.98158
      vertex -36.7656 -16.7561 -3.17236
    endloop
  endfacet
  facet normal 0.0477272 -4.92476e-32 -0.99886
    outer loop
      vertex -36.7656 -16.7561 -3.17236
      vertex -32.7728 13.93 -2.98158
      vertex -26.9237 11.393 -2.7021
    endloop
  endfacet
  facet normal 0.0477272 -4.92476e-32 -0.99886
    outer loop
      vertex -26.9237 11.393 -2.7021
      vertex -19.5286 9.29474 -2.34875
      vertex -36.7656 -16.7561 -3.17236
    endloop
  endfacet
  facet normal 0.0477272 -4.92476e-32 -0.99886
    outer loop
      vertex -19.5286 9.29474 -2.34875
      vertex -15.5704 8.5746 -2.15962
      vertex -36.7656 -16.7561 -3.17236
    endloop
  endfacet
  facet normal 0.0477272 -4.92476e-32 -0.99886
    outer loop
      vertex -19.5286 -9.29475 -2.34875
      vertex -15.5704 8.5746 -2.15962
      vertex -15.5704 -8.5746 -2.15962
    endloop
  endfacet
  facet normal 0.0477272 -4.92476e-32 -0.99886
    outer loop
      vertex -26.9237 -11.393 -2.7021
      vertex -15.5704 8.5746 -2.15962
      vertex -19.5286 -9.29475 -2.34875
    endloop
  endfacet
  facet normal 0.0477272 -4.92476e-32 -0.99886
    outer loop
      vertex -32.7728 -13.93 -2.98158
      vertex -15.5704 8.5746 -2.15962
      vertex -26.9237 -11.393 -2.7021
    endloop
  endfacet
  facet normal 0.0477272 -4.92476e-32 -0.99886
    outer loop
      vertex -36.7656 -16.7561 -3.17236
      vertex -15.5704 8.5746 -2.15962
      vertex -32.7728 -13.93 -2.98158
    endloop
  endfacet
  facet normal 0.577719 0.816236 -2.56559e-16
    outer loop
      vertex -36.8203 16.7947 -3.17236
      vertex -36.8203 16.7947 0.665097
      vertex -36.7656 16.7561 -3.17236
    endloop
  endfacet
  facet normal 0.577719 0.816236 -2.56559e-16
    outer loop
      vertex -36.7656 16.7561 -3.17236
      vertex -36.8203 16.7947 0.665097
      vertex -32.7728 13.93 0.837742
    endloop
  endfacet
  facet normal 0.577719 0.816236 -2.56559e-16
    outer loop
      vertex -36.7656 16.7561 -3.17236
      vertex -32.7728 13.93 0.837742
      vertex -32.7728 13.93 -2.98158
    endloop
  endfacet
  facet normal 0.829036 0.559195 -3.68166e-16
    outer loop
      vertex -36.8203 16.7947 -3.17236
      vertex -38.8892 19.8621 -3.17236
      vertex -38.8892 19.8621 0.637852
    endloop
  endfacet
  facet normal 0.829036 0.559195 -3.68166e-16
    outer loop
      vertex -36.8203 16.7947 0.665097
      vertex -36.8203 16.7947 -3.17236
      vertex -37.459 17.7417 0.637852
    endloop
  endfacet
  facet normal 0.829036 0.559195 -3.68166e-16
    outer loop
      vertex -37.459 17.7417 0.637852
      vertex -36.8203 16.7947 -3.17236
      vertex -38.8892 19.8621 0.637852
    endloop
  endfacet
  facet normal 1 2.22045e-16 -4.44089e-16
    outer loop
      vertex -38.8892 21.43 -3.17236
      vertex -38.8892 21.43 -6.69259e-15
      vertex -38.8892 21.43 0.637852
    endloop
  endfacet
  facet normal 1 2.22045e-16 -4.44089e-16
    outer loop
      vertex -38.8892 19.8621 -3.17236
      vertex -38.8892 21.43 -3.17236
      vertex -38.8892 19.8621 0.637852
    endloop
  endfacet
  facet normal 1 2.22045e-16 -4.44089e-16
    outer loop
      vertex -38.8892 19.8621 0.637852
      vertex -38.8892 21.43 -3.17236
      vertex -38.8892 21.43 0.637852
    endloop
  endfacet
  facet normal -4.93038e-32 1 -2.22045e-16
    outer loop
      vertex -39.15 21.43 -6.63469e-15
      vertex -38.8892 21.43 -6.69259e-15
      vertex -39.15 21.43 -3.17236
    endloop
  endfacet
  facet normal -4.93038e-32 1 -2.22045e-16
    outer loop
      vertex -39.15 21.43 -3.17236
      vertex -38.8892 21.43 -6.69259e-15
      vertex -38.8892 21.43 -3.17236
    endloop
  endfacet
  facet normal -1 1.09476e-47 2.22045e-16
    outer loop
      vertex -46.6 5 -0.83
      vertex -46.6 7 -0.83
      vertex -46.6 5 -3.17236
    endloop
  endfacet
  facet normal -1 1.09476e-47 2.22045e-16
    outer loop
      vertex -46.6 5 -3.17236
      vertex -46.6 7 -0.83
      vertex -46.6 7 -3.17236
    endloop
  endfacet
  facet normal 1.09476e-47 -1 4.93038e-32
    outer loop
      vertex -46.6 7 -3.17236
      vertex -46.6 7 -0.83
      vertex -48.6 7 -0.83
    endloop
  endfacet
  facet normal 1.09476e-47 -1 4.93038e-32
    outer loop
      vertex -48.6 7 -3.17236
      vertex -46.6 7 -3.17236
      vertex -48.6 7 -0.83
    endloop
  endfacet
  facet normal -1.09476e-47 1 -4.93038e-32
    outer loop
      vertex -46.6 5 -0.83
      vertex -46.6 5 -3.17236
      vertex -48.6 5 -0.83
    endloop
  endfacet
  facet normal -1.09476e-47 1 -4.93038e-32
    outer loop
      vertex -48.6 5 -0.83
      vertex -46.6 5 -3.17236
      vertex -48.6 5 -3.17236
    endloop
  endfacet
  facet normal 1 -1.09476e-47 -2.22045e-16
    outer loop
      vertex -48.6 7 -0.83
      vertex -48.6 5 -0.83
      vertex -48.6 5 -3.17236
    endloop
  endfacet
  facet normal 1 -1.09476e-47 -2.22045e-16
    outer loop
      vertex -48.6 7 -3.17236
      vertex -48.6 7 -0.83
      vertex -48.6 5 -3.17236
    endloop
  endfacet
  facet normal -1 2.28848e-17 2.22045e-16
    outer loop
      vertex -52.6 -1 -0.83
      vertex -52.6 1 -0.83
      vertex -52.6 -1 -3.17236
    endloop
  endfacet
  facet normal -1 2.28848e-17 2.22045e-16
    outer loop
      vertex -52.6 -1 -3.17236
      vertex -52.6 1 -0.83
      vertex -52.6 1 -3.17236
    endloop
  endfacet
  facet normal -2.28848e-17 -1 5.43852e-32
    outer loop
      vertex -52.6 1 -3.17236
      vertex -52.6 1 -0.83
      vertex -54.6 1 -0.83
    endloop
  endfacet
  facet normal -2.28848e-17 -1 5.43852e-32
    outer loop
      vertex -54.6 1 -3.17236
      vertex -52.6 1 -3.17236
      vertex -54.6 1 -0.83
    endloop
  endfacet
  facet normal 2.28848e-17 1 -5.43852e-32
    outer loop
      vertex -52.6 -1 -0.83
      vertex -52.6 -1 -3.17236
      vertex -54.6 -1 -0.83
    endloop
  endfacet
  facet normal 2.28848e-17 1 -5.43852e-32
    outer loop
      vertex -54.6 -1 -0.83
      vertex -52.6 -1 -3.17236
      vertex -54.6 -1 -3.17236
    endloop
  endfacet
  facet normal 1 -2.28848e-17 -2.22045e-16
    outer loop
      vertex -54.6 1 -0.83
      vertex -54.6 -1 -0.83
      vertex -54.6 -1 -3.17236
    endloop
  endfacet
  facet normal 1 -2.28848e-17 -2.22045e-16
    outer loop
      vertex -54.6 1 -3.17236
      vertex -54.6 1 -0.83
      vertex -54.6 -1 -3.17236
    endloop
  endfacet
  facet normal -1 -9.95799e-17 2.22045e-16
    outer loop
      vertex -40.6 -1 -0.83
      vertex -40.6 1 -0.83
      vertex -40.6 -1 -3.17236
    endloop
  endfacet
  facet normal -1 -9.95799e-17 2.22045e-16
    outer loop
      vertex -40.6 -1 -3.17236
      vertex -40.6 1 -0.83
      vertex -40.6 1 -3.17236
    endloop
  endfacet
  facet normal 9.95799e-17 -1 2.71926e-32
    outer loop
      vertex -40.6 1 -3.17236
      vertex -40.6 1 -0.83
      vertex -42.6 1 -0.83
    endloop
  endfacet
  facet normal 9.95799e-17 -1 2.71926e-32
    outer loop
      vertex -42.6 1 -3.17236
      vertex -40.6 1 -3.17236
      vertex -42.6 1 -0.83
    endloop
  endfacet
  facet normal -9.95799e-17 1 -2.71926e-32
    outer loop
      vertex -40.6 -1 -0.83
      vertex -40.6 -1 -3.17236
      vertex -42.6 -1 -0.83
    endloop
  endfacet
  facet normal -9.95799e-17 1 -2.71926e-32
    outer loop
      vertex -42.6 -1 -0.83
      vertex -40.6 -1 -3.17236
      vertex -42.6 -1 -3.17236
    endloop
  endfacet
  facet normal 1 9.95799e-17 -2.22045e-16
    outer loop
      vertex -42.6 1 -0.83
      vertex -42.6 -1 -0.83
      vertex -42.6 -1 -3.17236
    endloop
  endfacet
  facet normal 1 9.95799e-17 -2.22045e-16
    outer loop
      vertex -42.6 1 -3.17236
      vertex -42.6 1 -0.83
      vertex -42.6 -1 -3.17236
    endloop
  endfacet
  facet normal -1 1.09476e-47 2.22045e-16
    outer loop
      vertex -46.6 -7 -0.83
      vertex -46.6 -5 -0.83
      vertex -46.6 -7 -3.17236
    endloop
  endfacet
  facet normal -1 1.09476e-47 2.22045e-16
    outer loop
      vertex -46.6 -7 -3.17236
      vertex -46.6 -5 -0.83
      vertex -46.6 -5 -3.17236
    endloop
  endfacet
  facet normal 1.09476e-47 -1 4.93038e-32
    outer loop
      vertex -46.6 -5 -3.17236
      vertex -46.6 -5 -0.83
      vertex -48.6 -5 -0.83
    endloop
  endfacet
  facet normal 1.09476e-47 -1 4.93038e-32
    outer loop
      vertex -48.6 -5 -3.17236
      vertex -46.6 -5 -3.17236
      vertex -48.6 -5 -0.83
    endloop
  endfacet
  facet normal -1.09476e-47 1 -4.93038e-32
    outer loop
      vertex -46.6 -7 -0.83
      vertex -46.6 -7 -3.17236
      vertex -48.6 -7 -0.83
    endloop
  endfacet
  facet normal -1.09476e-47 1 -4.93038e-32
    outer loop
      vertex -48.6 -7 -0.83
      vertex -46.6 -7 -3.17236
      vertex -48.6 -7 -3.17236
    endloop
  endfacet
  facet normal 1 -1.09476e-47 -2.22045e-16
    outer loop
      vertex -48.6 -5 -0.83
      vertex -48.6 -7 -0.83
      vertex -48.6 -7 -3.17236
    endloop
  endfacet
  facet normal 1 -1.09476e-47 -2.22045e-16
    outer loop
      vertex -48.6 -5 -3.17236
      vertex -48.6 -5 -0.83
      vertex -48.6 -7 -3.17236
    endloop
  endfacet
  facet normal -1.09476e-47 1 -4.93038e-32
    outer loop
      vertex -39.15 21.43 -6.63469e-15
      vertex -39.15 21.43 0.637852
      vertex -38.8892 21.43 -6.69259e-15
    endloop
  endfacet
  facet normal -1.09476e-47 1 -4.93038e-32
    outer loop
      vertex -38.8892 21.43 -6.69259e-15
      vertex -39.15 21.43 0.637852
      vertex -38.8892 21.43 0.637852
    endloop
  endfacet
  facet normal 2.22045e-16 4.93038e-32 1
    outer loop
      vertex -38.8892 19.8621 0.637852
      vertex -38.8892 21.43 0.637852
      vertex -39.15 -21.43 0.637852
    endloop
  endfacet
  facet normal 2.22045e-16 4.93038e-32 1
    outer loop
      vertex -39.15 -21.43 0.637852
      vertex -38.8892 -21.43 0.637852
      vertex -38.8892 -19.8621 0.637852
    endloop
  endfacet
  facet normal 2.22045e-16 4.93038e-32 1
    outer loop
      vertex -37.459 17.7417 0.637852
      vertex -39.15 -21.43 0.637852
      vertex -38.8892 -19.8621 0.637852
    endloop
  endfacet
  facet normal 2.22045e-16 4.93038e-32 1
    outer loop
      vertex -37.459 -17.7417 0.637852
      vertex -37.459 17.7417 0.637852
      vertex -38.8892 -19.8621 0.637852
    endloop
  endfacet
  facet normal 2.22045e-16 4.93038e-32 1
    outer loop
      vertex -37.459 17.7417 0.637852
      vertex -38.8892 19.8621 0.637852
      vertex -39.15 -21.43 0.637852
    endloop
  endfacet
  facet normal 2.22045e-16 4.93038e-32 1
    outer loop
      vertex -38.8892 21.43 0.637852
      vertex -39.15 21.43 0.637852
      vertex -39.15 -21.43 0.637852
    endloop
  endfacet
  facet normal 4.93038e-32 -1 2.22045e-16
    outer loop
      vertex -38.8892 -21.43 0.637852
      vertex -39.15 -21.43 0.637852
      vertex -39.15 -21.43 2.88214e-15
    endloop
  endfacet
  facet normal 4.93038e-32 -1 2.22045e-16
    outer loop
      vertex -38.8892 -21.43 2.82424e-15
      vertex -38.8892 -21.43 0.637852
      vertex -39.15 -21.43 2.88214e-15
    endloop
  endfacet
  facet normal -0.0426161 4.9259e-32 0.999092
    outer loop
      vertex -17.6203 8.94755 1.48407
      vertex -36.8203 -16.7947 0.665097
      vertex -32.7728 -13.93 0.837742
    endloop
  endfacet
  facet normal -0.0426161 4.9259e-32 0.999092
    outer loop
      vertex -19.5286 -9.29475 1.40267
      vertex -17.6203 8.94755 1.48407
      vertex -26.9237 -11.393 1.08724
    endloop
  endfacet
  facet normal -0.0426161 4.9259e-32 0.999092
    outer loop
      vertex -26.9237 -11.393 1.08724
      vertex -17.6203 8.94755 1.48407
      vertex -32.7728 -13.93 0.837742
    endloop
  endfacet
  facet normal -0.0426161 4.9259e-32 0.999092
    outer loop
      vertex -37.459 -17.7417 0.637852
      vertex -36.8203 -16.7947 0.665097
      vertex -19.5286 9.29474 1.40267
    endloop
  endfacet
  facet normal -0.0426161 4.9259e-32 0.999092
    outer loop
      vertex -26.9237 11.393 1.08724
      vertex -32.7728 13.93 0.837742
      vertex -37.459 -17.7417 0.637852
    endloop
  endfacet
  facet normal -0.0426161 4.9259e-32 0.999092
    outer loop
      vertex -17.6203 -8.94755 1.48407
      vertex -17.6203 8.94755 1.48407
      vertex -19.5286 -9.29475 1.40267
    endloop
  endfacet
  facet normal -0.0426161 4.9259e-32 0.999092
    outer loop
      vertex -17.6203 8.94755 1.48407
      vertex -19.5286 9.29474 1.40267
      vertex -36.8203 -16.7947 0.665097
    endloop
  endfacet
  facet normal -0.0426161 4.9259e-32 0.999092
    outer loop
      vertex -32.7728 13.93 0.837742
      vertex -36.8203 16.7947 0.665097
      vertex -37.459 -17.7417 0.637852
    endloop
  endfacet
  facet normal -0.0426161 4.9259e-32 0.999092
    outer loop
      vertex -19.5286 9.29474 1.40267
      vertex -26.9237 11.393 1.08724
      vertex -37.459 -17.7417 0.637852
    endloop
  endfacet
  facet normal -0.0426161 4.9259e-32 0.999092
    outer loop
      vertex -36.8203 16.7947 0.665097
      vertex -37.459 17.7417 0.637852
      vertex -37.459 -17.7417 0.637852
    endloop
  endfacet
  facet normal 0.397917 -0.917422 -1.76711e-16
    outer loop
      vertex -26.9237 -11.393 1.08724
      vertex -32.7728 -13.93 0.837742
      vertex -32.7728 -13.93 -2.98158
    endloop
  endfacet
  facet normal 0.397917 -0.917422 -1.76711e-16
    outer loop
      vertex -26.9237 -11.393 -2.7021
      vertex -26.9237 -11.393 1.08724
      vertex -32.7728 -13.93 -2.98158
    endloop
  endfacet
  facet normal 0.272965 -0.962024 -1.21221e-16
    outer loop
      vertex -19.5286 -9.29475 1.40267
      vertex -26.9237 -11.393 1.08724
      vertex -26.9237 -11.393 -2.7021
    endloop
  endfacet
  facet normal 0.272965 -0.962024 -1.21221e-16
    outer loop
      vertex -19.5286 -9.29475 -2.34875
      vertex -19.5286 -9.29475 1.40267
      vertex -26.9237 -11.393 -2.7021
    endloop
  endfacet
  facet normal 0.179 -0.983849 -7.94918e-17
    outer loop
      vertex -10.9107 -7.72682 2.08355
      vertex -17.6203 -8.94755 1.48407
      vertex -19.5286 -9.29475 -2.34875
    endloop
  endfacet
  facet normal 0.179 -0.983849 -7.94918e-17
    outer loop
      vertex -19.5286 -9.29475 -2.34875
      vertex -17.6203 -8.94755 1.48407
      vertex -19.5286 -9.29475 1.40267
    endloop
  endfacet
  facet normal 0.179 -0.983849 -7.94918e-17
    outer loop
      vertex -10.9107 -7.72682 2.08355
      vertex -19.5286 -9.29475 -2.34875
      vertex -15.5704 -8.5746 -2.15962
    endloop
  endfacet
  facet normal 0.179 -0.983849 -7.94918e-17
    outer loop
      vertex -10.9107 -7.72682 2.08355
      vertex -15.5704 -8.5746 -2.15962
      vertex -10.9107 -7.72682 -1.69325
    endloop
  endfacet
  facet normal 0.0995876 -4.90587e-32 -0.995029
    outer loop
      vertex -15.5704 8.5746 -2.15962
      vertex -10.9107 7.72682 -1.69325
      vertex -15.5704 -8.5746 -2.15962
    endloop
  endfacet
  facet normal 0.0995876 -4.90587e-32 -0.995029
    outer loop
      vertex -15.5704 -8.5746 -2.15962
      vertex -10.9107 7.72682 -1.69325
      vertex -1.4466 6.75779 -0.746035
    endloop
  endfacet
  facet normal 0.0995876 -4.90587e-32 -0.995029
    outer loop
      vertex -1.4466 6.75779 -0.746035
      vertex 4.225 6.56994 -0.178392
      vertex -15.5704 -8.5746 -2.15962
    endloop
  endfacet
  facet normal 0.0995876 -4.90587e-32 -0.995029
    outer loop
      vertex -1.4466 -6.75779 -0.746035
      vertex 4.225 6.56994 -0.178392
      vertex 4.225 -6.56994 -0.178392
    endloop
  endfacet
  facet normal 0.0995876 -4.90587e-32 -0.995029
    outer loop
      vertex -10.9107 -7.72682 -1.69325
      vertex 4.225 6.56994 -0.178392
      vertex -1.4466 -6.75779 -0.746035
    endloop
  endfacet
  facet normal 0.0995876 -4.90587e-32 -0.995029
    outer loop
      vertex -15.5704 -8.5746 -2.15962
      vertex 4.225 6.56994 -0.178392
      vertex -10.9107 -7.72682 -1.69325
    endloop
  endfacet
  facet normal 0.179 0.983849 -7.94918e-17
    outer loop
      vertex -19.5286 9.29474 -2.34875
      vertex -19.5286 9.29474 1.40267
      vertex -15.5704 8.5746 -2.15962
    endloop
  endfacet
  facet normal 0.179 0.983849 -7.94918e-17
    outer loop
      vertex -15.5704 8.5746 -2.15962
      vertex -19.5286 9.29474 1.40267
      vertex -17.6203 8.94755 1.48407
    endloop
  endfacet
  facet normal 0.179 0.983849 -7.94918e-17
    outer loop
      vertex -15.5704 8.5746 -2.15962
      vertex -17.6203 8.94755 1.48407
      vertex -10.9107 7.72682 2.08355
    endloop
  endfacet
  facet normal 0.179 0.983849 -7.94918e-17
    outer loop
      vertex -15.5704 8.5746 -2.15962
      vertex -10.9107 7.72682 2.08355
      vertex -10.9107 7.72682 -1.69325
    endloop
  endfacet
  facet normal 0.272965 0.962024 -1.21221e-16
    outer loop
      vertex -26.9237 11.393 -2.7021
      vertex -26.9237 11.393 1.08724
      vertex -19.5286 9.29474 -2.34875
    endloop
  endfacet
  facet normal 0.272965 0.962024 -1.21221e-16
    outer loop
      vertex -19.5286 9.29474 -2.34875
      vertex -26.9237 11.393 1.08724
      vertex -19.5286 9.29474 1.40267
    endloop
  endfacet
  facet normal 0.397917 0.917422 -1.76711e-16
    outer loop
      vertex -32.7728 13.93 -2.98158
      vertex -32.7728 13.93 0.837742
      vertex -26.9237 11.393 -2.7021
    endloop
  endfacet
  facet normal 0.397917 0.917422 -1.76711e-16
    outer loop
      vertex -26.9237 11.393 -2.7021
      vertex -32.7728 13.93 0.837742
      vertex -26.9237 11.393 1.08724
    endloop
  endfacet
  facet normal -0.0889919 4.91082e-32 0.996032
    outer loop
      vertex 0.9082 6.67979 3.13952
      vertex -10.9107 -7.72682 2.08355
      vertex -1.4466 -6.75779 2.92913
    endloop
  endfacet
  facet normal -0.0889919 4.91082e-32 0.996032
    outer loop
      vertex -1.4466 6.75779 2.92913
      vertex -10.9107 7.72682 2.08355
      vertex -17.6203 -8.94755 1.48407
    endloop
  endfacet
  facet normal -0.0889919 4.91082e-32 0.996032
    outer loop
      vertex -17.6203 -8.94755 1.48407
      vertex -10.9107 -7.72682 2.08355
      vertex 0.9082 6.67979 3.13952
    endloop
  endfacet
  facet normal -0.0889919 4.91082e-32 0.996032
    outer loop
      vertex 0.9082 -6.67979 3.13952
      vertex 0.9082 6.67979 3.13952
      vertex -1.4466 -6.75779 2.92913
    endloop
  endfacet
  facet normal -0.0889919 4.91082e-32 0.996032
    outer loop
      vertex 0.9082 6.67979 3.13952
      vertex -1.4466 6.75779 2.92913
      vertex -17.6203 -8.94755 1.48407
    endloop
  endfacet
  facet normal -0.0889919 4.91082e-32 0.996032
    outer loop
      vertex -10.9107 7.72682 2.08355
      vertex -17.6203 8.94755 1.48407
      vertex -17.6203 -8.94755 1.48407
    endloop
  endfacet
  facet normal 0.101858 -0.994799 -4.52341e-17
    outer loop
      vertex -1.4466 -6.75779 2.92913
      vertex -10.9107 -7.72682 2.08355
      vertex -10.9107 -7.72682 -1.69325
    endloop
  endfacet
  facet normal 0.101858 -0.994799 -4.52341e-17
    outer loop
      vertex -1.4466 -6.75779 -0.746035
      vertex -1.4466 -6.75779 2.92913
      vertex -10.9107 -7.72682 -1.69325
    endloop
  endfacet
  facet normal 0.0331029 -0.999452 -1.47007e-17
    outer loop
      vertex 8.45 -6.43 4.23911
      vertex 0.9082 -6.67979 3.13952
      vertex -1.4466 -6.75779 -0.746035
    endloop
  endfacet
  facet normal 0.0331029 -0.999452 -1.47007e-17
    outer loop
      vertex -1.4466 -6.75779 -0.746035
      vertex 0.9082 -6.67979 3.13952
      vertex -1.4466 -6.75779 2.92913
    endloop
  endfacet
  facet normal 0.0331029 -0.999452 -1.47007e-17
    outer loop
      vertex 8.45 -6.43 4.23911
      vertex -1.4466 -6.75779 -0.746035
      vertex 4.225 -6.56994 -0.178392
    endloop
  endfacet
  facet normal 0.0331029 -0.999452 -1.47007e-17
    outer loop
      vertex 8.45 -6.43 4.23911
      vertex 4.225 -6.56994 -0.178392
      vertex 8.45 -6.43 0.511648
    endloop
  endfacet
  facet normal 0.161187 -4.86591e-32 -0.986924
    outer loop
      vertex 4.225 6.56994 -0.178392
      vertex 8.45 6.43 0.511648
      vertex 4.225 -6.56994 -0.178392
    endloop
  endfacet
  facet normal 0.161187 -4.86591e-32 -0.986924
    outer loop
      vertex 4.225 -6.56994 -0.178392
      vertex 8.45 6.43 0.511648
      vertex 18.3466 6.28949 2.12799
    endloop
  endfacet
  facet normal 0.161187 -4.86591e-32 -0.986924
    outer loop
      vertex 4.225 -6.56994 -0.178392
      vertex 18.3466 6.28949 2.12799
      vertex 21.7554 6.13987 2.68473
    endloop
  endfacet
  facet normal 0.161187 -4.86591e-32 -0.986924
    outer loop
      vertex 8.45 -6.43 0.511648
      vertex 21.7554 6.13987 2.68473
      vertex 21.7554 -6.13987 2.68473
    endloop
  endfacet
  facet normal 0.161187 -4.86591e-32 -0.986924
    outer loop
      vertex 4.225 -6.56994 -0.178392
      vertex 21.7554 6.13987 2.68473
      vertex 8.45 -6.43 0.511648
    endloop
  endfacet
  facet normal 0.161187 -4.86591e-32 -0.986924
    outer loop
      vertex 8.45 -6.43 0.511648
      vertex 21.7554 -6.13987 2.68473
      vertex 18.3466 -6.28949 2.12799
    endloop
  endfacet
  facet normal 0.0331029 0.999452 -1.47007e-17
    outer loop
      vertex -1.4466 6.75779 -0.746035
      vertex -1.4466 6.75779 2.92913
      vertex 4.225 6.56994 -0.178392
    endloop
  endfacet
  facet normal 0.0331029 0.999452 -1.47007e-17
    outer loop
      vertex 4.225 6.56994 -0.178392
      vertex -1.4466 6.75779 2.92913
      vertex 0.9082 6.67979 3.13952
    endloop
  endfacet
  facet normal 0.0331029 0.999452 -1.47007e-17
    outer loop
      vertex 4.225 6.56994 -0.178392
      vertex 0.9082 6.67979 3.13952
      vertex 8.45 6.43 4.23911
    endloop
  endfacet
  facet normal 0.0331029 0.999452 -1.47007e-17
    outer loop
      vertex 4.225 6.56994 -0.178392
      vertex 8.45 6.43 4.23911
      vertex 8.45 6.43 0.511648
    endloop
  endfacet
  facet normal 0.101858 0.994799 -4.52341e-17
    outer loop
      vertex -10.9107 7.72682 -1.69325
      vertex -10.9107 7.72682 2.08355
      vertex -1.4466 6.75779 -0.746035
    endloop
  endfacet
  facet normal 0.101858 0.994799 -4.52341e-17
    outer loop
      vertex -1.4466 6.75779 -0.746035
      vertex -10.9107 7.72682 2.08355
      vertex -1.4466 6.75779 2.92913
    endloop
  endfacet
  facet normal -0.144274 4.8788e-32 0.989538
    outer loop
      vertex 17.3166 6.30411 5.53186
      vertex 0.9082 -6.67979 3.13952
      vertex 8.45 -6.43 4.23911
    endloop
  endfacet
  facet normal -0.144274 4.8788e-32 0.989538
    outer loop
      vertex 17.3166 -6.30411 5.53186
      vertex 17.3166 6.30411 5.53186
      vertex 8.45 -6.43 4.23911
    endloop
  endfacet
  facet normal -0.144274 4.8788e-32 0.989538
    outer loop
      vertex 17.3166 6.30411 5.53186
      vertex 8.45 6.43 4.23911
      vertex 0.9082 -6.67979 3.13952
    endloop
  endfacet
  facet normal -0.144274 4.8788e-32 0.989538
    outer loop
      vertex 8.45 6.43 4.23911
      vertex 0.9082 6.67979 3.13952
      vertex 0.9082 -6.67979 3.13952
    endloop
  endfacet
  facet normal 0.0141965 -0.999899 -6.3045e-18
    outer loop
      vertex 8.45 -6.43 0.511648
      vertex 18.3466 -6.28949 2.12799
      vertex 18.3466 -6.28949 5.76141
    endloop
  endfacet
  facet normal 0.0141965 -0.999899 -6.3045e-18
    outer loop
      vertex 8.45 -6.43 4.23911
      vertex 8.45 -6.43 0.511648
      vertex 17.3166 -6.30411 5.53186
    endloop
  endfacet
  facet normal 0.0141965 -0.999899 -6.3045e-18
    outer loop
      vertex 17.3166 -6.30411 5.53186
      vertex 8.45 -6.43 0.511648
      vertex 18.3466 -6.28949 5.76141
    endloop
  endfacet
  facet normal 0.0438492 -0.999038 -1.9473e-17
    outer loop
      vertex 21.7554 -6.13987 2.68473
      vertex 27.8107 -5.8741 4.19649
      vertex 27.8107 -5.8741 7.87069
    endloop
  endfacet
  facet normal 0.0438492 -0.999038 -1.9473e-17
    outer loop
      vertex 18.3466 -6.28949 2.12799
      vertex 21.7554 -6.13987 2.68473
      vertex 18.3466 -6.28949 5.76141
    endloop
  endfacet
  facet normal 0.0438492 -0.999038 -1.9473e-17
    outer loop
      vertex 18.3466 -6.28949 5.76141
      vertex 21.7554 -6.13987 2.68473
      vertex 27.8107 -5.8741 7.87069
    endloop
  endfacet
  facet normal 0.242225 -4.78355e-32 -0.97022
    outer loop
      vertex 21.7554 6.13987 2.68473
      vertex 27.8107 5.8741 4.19649
      vertex 21.7554 -6.13987 2.68473
    endloop
  endfacet
  facet normal 0.242225 -4.78355e-32 -0.97022
    outer loop
      vertex 21.7554 -6.13987 2.68473
      vertex 27.8107 5.8741 4.19649
      vertex 36.2546 5.21555 6.3046
    endloop
  endfacet
  facet normal 0.242225 -4.78355e-32 -0.97022
    outer loop
      vertex 21.7554 -6.13987 2.68473
      vertex 36.2546 5.21555 6.3046
      vertex 36.2546 -5.21555 6.3046
    endloop
  endfacet
  facet normal 0.242225 -4.78355e-32 -0.97022
    outer loop
      vertex 21.7554 -6.13987 2.68473
      vertex 36.2546 -5.21555 6.3046
      vertex 27.8107 -5.8741 4.19649
    endloop
  endfacet
  facet normal 0.0438492 0.999038 -1.9473e-17
    outer loop
      vertex 18.3466 6.28949 2.12799
      vertex 18.3466 6.28949 5.76141
      vertex 21.7554 6.13987 2.68473
    endloop
  endfacet
  facet normal 0.0438492 0.999038 -1.9473e-17
    outer loop
      vertex 21.7554 6.13987 2.68473
      vertex 18.3466 6.28949 5.76141
      vertex 27.8107 5.8741 7.87069
    endloop
  endfacet
  facet normal 0.0438492 0.999038 -1.9473e-17
    outer loop
      vertex 21.7554 6.13987 2.68473
      vertex 27.8107 5.8741 7.87069
      vertex 27.8107 5.8741 4.19649
    endloop
  endfacet
  facet normal 0.0141965 0.999899 -6.3045e-18
    outer loop
      vertex 8.45 6.43 4.23911
      vertex 17.3166 6.30411 5.53186
      vertex 8.45 6.43 0.511648
    endloop
  endfacet
  facet normal 0.0141965 0.999899 -6.3045e-18
    outer loop
      vertex 8.45 6.43 0.511648
      vertex 17.3166 6.30411 5.53186
      vertex 18.3466 6.28949 5.76141
    endloop
  endfacet
  facet normal 0.0141965 0.999899 -6.3045e-18
    outer loop
      vertex 8.45 6.43 0.511648
      vertex 18.3466 6.28949 5.76141
      vertex 18.3466 6.28949 2.12799
    endloop
  endfacet
  facet normal -0.217535 4.81231e-32 0.976052
    outer loop
      vertex 17.3166 -6.30411 5.53186
      vertex 18.3466 -6.28949 5.76141
      vertex 27.8107 -5.8741 7.87069
    endloop
  endfacet
  facet normal -0.217535 4.81231e-32 0.976052
    outer loop
      vertex 30.8879 5.6341 8.55653
      vertex 17.3166 -6.30411 5.53186
      vertex 30.8879 -5.6341 8.55653
    endloop
  endfacet
  facet normal -0.217535 4.81231e-32 0.976052
    outer loop
      vertex 30.8879 -5.6341 8.55653
      vertex 17.3166 -6.30411 5.53186
      vertex 27.8107 -5.8741 7.87069
    endloop
  endfacet
  facet normal -0.217535 4.81231e-32 0.976052
    outer loop
      vertex 27.8107 5.8741 7.87069
      vertex 17.3166 -6.30411 5.53186
      vertex 30.8879 5.6341 8.55653
    endloop
  endfacet
  facet normal -0.217535 4.81231e-32 0.976052
    outer loop
      vertex 18.3466 6.28949 5.76141
      vertex 17.3166 -6.30411 5.53186
      vertex 27.8107 5.8741 7.87069
    endloop
  endfacet
  facet normal -0.217535 4.81231e-32 0.976052
    outer loop
      vertex 17.3166 6.30411 5.53186
      vertex 17.3166 -6.30411 5.53186
      vertex 18.3466 6.28949 5.76141
    endloop
  endfacet
  facet normal 0.0777547 -0.996973 -3.453e-17
    outer loop
      vertex 36.2546 -5.21555 6.3046
      vertex 36.4286 -5.20198 6.37234
      vertex 36.4286 -5.20198 10.4823
    endloop
  endfacet
  facet normal 0.0777547 -0.996973 -3.453e-17
    outer loop
      vertex 27.8107 -5.8741 7.87069
      vertex 36.2546 -5.21555 6.3046
      vertex 30.8879 -5.6341 8.55653
    endloop
  endfacet
  facet normal 0.0777547 -0.996973 -3.453e-17
    outer loop
      vertex 30.8879 -5.6341 8.55653
      vertex 36.2546 -5.21555 6.3046
      vertex 36.4286 -5.20198 10.4823
    endloop
  endfacet
  facet normal 0.0777547 -0.996973 -3.453e-17
    outer loop
      vertex 27.8107 -5.8741 4.19649
      vertex 36.2546 -5.21555 6.3046
      vertex 27.8107 -5.8741 7.87069
    endloop
  endfacet
  facet normal 0.362825 -4.59441e-32 -0.931857
    outer loop
      vertex 36.2546 5.21555 6.3046
      vertex 36.4286 5.20198 6.37234
      vertex 36.2546 -5.21555 6.3046
    endloop
  endfacet
  facet normal 0.362825 -4.59441e-32 -0.931857
    outer loop
      vertex 36.2546 -5.21555 6.3046
      vertex 36.4286 5.20198 6.37234
      vertex 43.8237 4.30251 9.25167
    endloop
  endfacet
  facet normal 0.362825 -4.59441e-32 -0.931857
    outer loop
      vertex 36.2546 -5.21555 6.3046
      vertex 43.8237 4.30251 9.25167
      vertex 47.089 3.6954 10.523
    endloop
  endfacet
  facet normal 0.362825 -4.59441e-32 -0.931857
    outer loop
      vertex 36.2546 -5.21555 6.3046
      vertex 47.089 3.6954 10.523
      vertex 47.089 -3.6954 10.523
    endloop
  endfacet
  facet normal 0.362825 -4.59441e-32 -0.931857
    outer loop
      vertex 36.2546 -5.21555 6.3046
      vertex 47.089 -3.6954 10.523
      vertex 43.8237 -4.30251 9.25167
    endloop
  endfacet
  facet normal 0.362825 -4.59441e-32 -0.931857
    outer loop
      vertex 36.2546 -5.21555 6.3046
      vertex 43.8237 -4.30251 9.25167
      vertex 36.4286 -5.20198 6.37234
    endloop
  endfacet
  facet normal 0.0777547 0.996973 -3.453e-17
    outer loop
      vertex 27.8107 5.8741 4.19649
      vertex 27.8107 5.8741 7.87069
      vertex 36.2546 5.21555 6.3046
    endloop
  endfacet
  facet normal 0.0777547 0.996973 -3.453e-17
    outer loop
      vertex 36.2546 5.21555 6.3046
      vertex 27.8107 5.8741 7.87069
      vertex 30.8879 5.6341 8.55653
    endloop
  endfacet
  facet normal 0.0777547 0.996973 -3.453e-17
    outer loop
      vertex 36.2546 5.21555 6.3046
      vertex 30.8879 5.6341 8.55653
      vertex 36.4286 5.20198 10.4823
    endloop
  endfacet
  facet normal 0.0777547 0.996973 -3.453e-17
    outer loop
      vertex 36.2546 5.21555 6.3046
      vertex 36.4286 5.20198 10.4823
      vertex 36.4286 5.20198 6.37234
    endloop
  endfacet
  facet normal -0.328313 4.65708e-32 0.944569
    outer loop
      vertex 30.8879 -5.6341 8.55653
      vertex 36.4286 -5.20198 10.4823
      vertex 41.0289 -4.64244 12.0813
    endloop
  endfacet
  facet normal -0.328313 4.65708e-32 0.944569
    outer loop
      vertex 36.4286 5.20198 10.4823
      vertex 30.8879 -5.6341 8.55653
      vertex 41.0289 4.64244 12.0813
    endloop
  endfacet
  facet normal -0.328313 4.65708e-32 0.944569
    outer loop
      vertex 41.0289 4.64244 12.0813
      vertex 30.8879 -5.6341 8.55653
      vertex 41.0289 -4.64244 12.0813
    endloop
  endfacet
  facet normal -0.328313 4.65708e-32 0.944569
    outer loop
      vertex 30.8879 5.6341 8.55653
      vertex 30.8879 -5.6341 8.55653
      vertex 36.4286 5.20198 10.4823
    endloop
  endfacet
  facet normal 0.12074 -0.992684 -5.36195e-17
    outer loop
      vertex 36.4286 -5.20198 6.37234
      vertex 43.8237 -4.30251 9.25167
      vertex 43.8237 -4.30251 13.8074
    endloop
  endfacet
  facet normal 0.12074 -0.992684 -5.36195e-17
    outer loop
      vertex 36.4286 -5.20198 10.4823
      vertex 36.4286 -5.20198 6.37234
      vertex 41.0289 -4.64244 12.0813
    endloop
  endfacet
  facet normal 0.12074 -0.992684 -5.36195e-17
    outer loop
      vertex 41.0289 -4.64244 12.0813
      vertex 36.4286 -5.20198 6.37234
      vertex 43.8237 -4.30251 13.8074
    endloop
  endfacet
  facet normal 0.182795 -0.983151 -8.11771e-17
    outer loop
      vertex 47.089 -3.6954 10.523
      vertex 49.6728 -3.215 12.3106
      vertex 49.6728 -3.215 20
    endloop
  endfacet
  facet normal 0.182795 -0.983151 -8.11771e-17
    outer loop
      vertex 47.2964 -3.65685 15.9522
      vertex 47.089 -3.6954 10.523
      vertex 49.4164 -3.26267 20
    endloop
  endfacet
  facet normal 0.182795 -0.983151 -8.11771e-17
    outer loop
      vertex 49.4164 -3.26267 20
      vertex 47.089 -3.6954 10.523
      vertex 49.6728 -3.215 20
    endloop
  endfacet
  facet normal 0.182795 -0.983151 -8.11771e-17
    outer loop
      vertex 43.8237 -4.30251 13.8074
      vertex 47.089 -3.6954 10.523
      vertex 47.2964 -3.65685 15.9522
    endloop
  endfacet
  facet normal 0.182795 -0.983151 -8.11771e-17
    outer loop
      vertex 43.8237 -4.30251 9.25167
      vertex 47.089 -3.6954 10.523
      vertex 43.8237 -4.30251 13.8074
    endloop
  endfacet
  facet normal 0.568954 -4.05459e-32 -0.822369
    outer loop
      vertex 47.089 3.6954 10.523
      vertex 49.6728 3.215 12.3106
      vertex 47.089 -3.6954 10.523
    endloop
  endfacet
  facet normal 0.568954 -4.05459e-32 -0.822369
    outer loop
      vertex 47.089 -3.6954 10.523
      vertex 49.6728 3.215 12.3106
      vertex 53.7203 1.98698 15.1109
    endloop
  endfacet
  facet normal 0.568954 -4.05459e-32 -0.822369
    outer loop
      vertex 47.089 -3.6954 10.523
      vertex 53.7203 1.98698 15.1109
      vertex 53.785 1.94586 15.1557
    endloop
  endfacet
  facet normal 0.568954 -4.05459e-32 -0.822369
    outer loop
      vertex 47.089 -3.6954 10.523
      vertex 53.785 1.94586 15.1557
      vertex 53.785 -1.94586 15.1557
    endloop
  endfacet
  facet normal 0.568954 -4.05459e-32 -0.822369
    outer loop
      vertex 47.089 -3.6954 10.523
      vertex 53.785 -1.94586 15.1557
      vertex 53.7203 -1.98698 15.1109
    endloop
  endfacet
  facet normal 0.568954 -4.05459e-32 -0.822369
    outer loop
      vertex 47.089 -3.6954 10.523
      vertex 53.7203 -1.98698 15.1109
      vertex 49.6728 -3.215 12.3106
    endloop
  endfacet
  facet normal 0.182795 0.983151 -8.11771e-17
    outer loop
      vertex 43.8237 4.30251 9.25167
      vertex 43.8237 4.30251 13.8074
      vertex 47.089 3.6954 10.523
    endloop
  endfacet
  facet normal 0.182795 0.983151 -8.11771e-17
    outer loop
      vertex 47.089 3.6954 10.523
      vertex 43.8237 4.30251 13.8074
      vertex 47.2964 3.65685 15.9522
    endloop
  endfacet
  facet normal 0.182795 0.983151 -8.11771e-17
    outer loop
      vertex 47.089 3.6954 10.523
      vertex 47.2964 3.65685 15.9522
      vertex 49.4164 3.26267 20
    endloop
  endfacet
  facet normal 0.182795 0.983151 -8.11771e-17
    outer loop
      vertex 47.089 3.6954 10.523
      vertex 49.4164 3.26267 20
      vertex 49.6728 3.215 20
    endloop
  endfacet
  facet normal 0.182795 0.983151 -8.11771e-17
    outer loop
      vertex 47.089 3.6954 10.523
      vertex 49.6728 3.215 20
      vertex 49.6728 3.215 12.3106
    endloop
  endfacet
  facet normal 0.12074 0.992684 -5.36195e-17
    outer loop
      vertex 36.4286 5.20198 6.37234
      vertex 36.4286 5.20198 10.4823
      vertex 43.8237 4.30251 9.25167
    endloop
  endfacet
  facet normal 0.12074 0.992684 -5.36195e-17
    outer loop
      vertex 43.8237 4.30251 9.25167
      vertex 36.4286 5.20198 10.4823
      vertex 41.0289 4.64244 12.0813
    endloop
  endfacet
  facet normal 0.12074 0.992684 -5.36195e-17
    outer loop
      vertex 43.8237 4.30251 9.25167
      vertex 41.0289 4.64244 12.0813
      vertex 43.8237 4.30251 13.8074
    endloop
  endfacet
  facet normal -0.525473 4.19482e-32 0.85081
    outer loop
      vertex 41.0289 -4.64244 12.0813
      vertex 43.8237 -4.30251 13.8074
      vertex 47.2964 -3.65685 15.9522
    endloop
  endfacet
  facet normal -0.525473 4.19482e-32 0.85081
    outer loop
      vertex 43.8237 4.30251 13.8074
      vertex 41.0289 -4.64244 12.0813
      vertex 47.2964 3.65685 15.9522
    endloop
  endfacet
  facet normal -0.525473 4.19482e-32 0.85081
    outer loop
      vertex 47.2964 3.65685 15.9522
      vertex 41.0289 -4.64244 12.0813
      vertex 47.2964 -3.65685 15.9522
    endloop
  endfacet
  facet normal -0.525473 4.19482e-32 0.85081
    outer loop
      vertex 41.0289 4.64244 12.0813
      vertex 41.0289 -4.64244 12.0813
      vertex 43.8237 4.30251 13.8074
    endloop
  endfacet
  facet normal -0.885852 2.28754e-32 0.463967
    outer loop
      vertex 49.4164 -3.26267 20
      vertex 49.4164 3.26267 20
      vertex 47.2964 -3.65685 15.9522
    endloop
  endfacet
  facet normal -0.885852 2.28754e-32 0.463967
    outer loop
      vertex 47.2964 -3.65685 15.9522
      vertex 49.4164 3.26267 20
      vertex 47.2964 3.65685 15.9522
    endloop
  endfacet
  facet normal 4.44089e-16 9.86076e-32 1
    outer loop
      vertex 49.6728 3.215 20
      vertex 49.4164 3.26267 20
      vertex 49.4164 -3.26267 20
    endloop
  endfacet
  facet normal 4.44089e-16 9.86076e-32 1
    outer loop
      vertex 53.7203 -1.98698 20
      vertex 49.6728 3.215 20
      vertex 49.6728 -3.215 20
    endloop
  endfacet
  facet normal 4.44089e-16 9.86076e-32 1
    outer loop
      vertex 49.6728 -3.215 20
      vertex 49.6728 3.215 20
      vertex 49.4164 -3.26267 20
    endloop
  endfacet
  facet normal 4.44089e-16 9.86076e-32 1
    outer loop
      vertex 55.7892 -0.672118 20
      vertex 49.6728 3.215 20
      vertex 53.7203 -1.98698 20
    endloop
  endfacet
  facet normal 4.44089e-16 9.86076e-32 1
    outer loop
      vertex 55.7892 0.672118 20
      vertex 49.6728 3.215 20
      vertex 55.7892 -0.672118 20
    endloop
  endfacet
  facet normal 4.44089e-16 9.86076e-32 1
    outer loop
      vertex 53.7203 1.98698 20
      vertex 49.6728 3.215 20
      vertex 55.7892 0.672118 20
    endloop
  endfacet
  facet normal 0.290335 -0.956925 -1.28934e-16
    outer loop
      vertex 49.6728 -3.215 12.3106
      vertex 53.7203 -1.98698 15.1109
      vertex 53.7203 -1.98698 20
    endloop
  endfacet
  facet normal 0.290335 -0.956925 -1.28934e-16
    outer loop
      vertex 49.6728 -3.215 20
      vertex 49.6728 -3.215 12.3106
      vertex 53.7203 -1.98698 20
    endloop
  endfacet
  facet normal 0.536369 -0.843984 -2.38196e-16
    outer loop
      vertex 53.785 -1.94586 15.1557
      vertex 55.7892 -0.672118 19.4423
      vertex 55.7892 -0.672118 20
    endloop
  endfacet
  facet normal 0.536369 -0.843984 -2.38196e-16
    outer loop
      vertex 53.7203 -1.98698 15.1109
      vertex 53.785 -1.94586 15.1557
      vertex 53.7203 -1.98698 20
    endloop
  endfacet
  facet normal 0.536369 -0.843984 -2.38196e-16
    outer loop
      vertex 53.7203 -1.98698 20
      vertex 53.785 -1.94586 15.1557
      vertex 55.7892 -0.672118 20
    endloop
  endfacet
  facet normal 0.905874 -2.08825e-32 -0.423547
    outer loop
      vertex 53.785 -1.94586 15.1557
      vertex 53.785 1.94586 15.1557
      vertex 55.7892 0.672118 19.4423
    endloop
  endfacet
  facet normal 0.905874 -2.08825e-32 -0.423547
    outer loop
      vertex 55.7892 -0.672118 19.4423
      vertex 53.785 -1.94586 15.1557
      vertex 55.7892 0.672118 19.4423
    endloop
  endfacet
  facet normal 0.536369 0.843984 -2.38196e-16
    outer loop
      vertex 53.7203 1.98698 15.1109
      vertex 53.7203 1.98698 20
      vertex 53.785 1.94586 15.1557
    endloop
  endfacet
  facet normal 0.536369 0.843984 -2.38196e-16
    outer loop
      vertex 53.785 1.94586 15.1557
      vertex 53.7203 1.98698 20
      vertex 55.7892 0.672118 20
    endloop
  endfacet
  facet normal 0.536369 0.843984 -2.38196e-16
    outer loop
      vertex 53.785 1.94586 15.1557
      vertex 55.7892 0.672118 20
      vertex 55.7892 0.672118 19.4423
    endloop
  endfacet
  facet normal 0.290335 0.956925 -1.28934e-16
    outer loop
      vertex 49.6728 3.215 12.3106
      vertex 49.6728 3.215 20
      vertex 53.7203 1.98698 15.1109
    endloop
  endfacet
  facet normal 0.290335 0.956925 -1.28934e-16
    outer loop
      vertex 53.7203 1.98698 15.1109
      vertex 49.6728 3.215 20
      vertex 53.7203 1.98698 20
    endloop
  endfacet
  facet normal 1 2.22045e-16 -4.44089e-16
    outer loop
      vertex 55.7892 -0.672118 19.4423
      vertex 55.7892 0.672118 19.4423
      vertex 55.7892 0.672118 20
    endloop
  endfacet
  facet normal 1 2.22045e-16 -4.44089e-16
    outer loop
      vertex 55.7892 -0.672118 20
      vertex 55.7892 -0.672118 19.4423
      vertex 55.7892 0.672118 20
    endloop
  endfacet
endsolid OpenSCAD_Model
