solid OpenSCAD_Model
  facet normal 0 0 -1
    outer loop
      vertex 41.48 -8.45 -0.8
      vertex 41.43 -8.43375 -0.8
      vertex 46.4468 -6.83619 -0.8
    endloop
  endfacet
  facet normal 0 0 -1
    outer loop
      vertex -41.43 -8.45 -0.8
      vertex 41.43 -8.43375 -0.8
      vertex 41.43 -8.45 -0.8
    endloop
  endfacet
  facet normal 0 0 -1
    outer loop
      vertex 46.4468 -6.83619 -0.8
      vertex 41.43 -8.43375 -0.8
      vertex -41.43 -8.45 -0.8
    endloop
  endfacet
  facet normal 0 0 -1
    outer loop
      vertex 46.4468 -6.83619 -0.8
      vertex -41.43 -8.45 -0.8
      vertex -41.43 -8.43375 -0.8
    endloop
  endfacet
  facet normal 0 0 -1
    outer loop
      vertex -41.43 -8.43375 -0.8
      vertex -41.48 -8.45 -0.8
      vertex -46.4468 -6.83619 -0.8
    endloop
  endfacet
  facet normal 0 0 -1
    outer loop
      vertex 1 -4.67508 -0.8
      vertex 46.4468 -6.83619 -0.8
      vertex 1 -7 -0.8
    endloop
  endfacet
  facet normal 0 0 -1
    outer loop
      vertex -41.48 -3.5 -0.8
      vertex -46.4468 -6.83619 -0.8
      vertex -49.5164 -2.61119 -0.8
    endloop
  endfacet
  facet normal 0 0 -1
    outer loop
      vertex -44.8087 -1.08156 -0.8
      vertex -49.5164 -2.61119 -0.8
      vertex -49.5164 2.61119 -0.8
    endloop
  endfacet
  facet normal 0 0 -1
    outer loop
      vertex -41.48 3.5 -0.8
      vertex -49.5164 2.61119 -0.8
      vertex -46.4468 6.83619 -0.8
    endloop
  endfacet
  facet normal 0 0 -1
    outer loop
      vertex -41.43 8.43375 -0.8
      vertex -46.4468 6.83619 -0.8
      vertex -41.48 8.45 -0.8
    endloop
  endfacet
  facet normal 0 0 -1
    outer loop
      vertex -4.75528 1 -0.8
      vertex -46.4468 6.83619 -0.8
      vertex -41.43 8.43375 -0.8
    endloop
  endfacet
  facet normal 0 0 -1
    outer loop
      vertex 48.48 -1 -0.8
      vertex 45.2604 -1.22834 -0.8
      vertex 45.2604 -1 -0.8
    endloop
  endfacet
  facet normal 0 0 -1
    outer loop
      vertex 41.43 8.43375 -0.8
      vertex -41.43 8.45 -0.8
      vertex 41.43 8.45 -0.8
    endloop
  endfacet
  facet normal 0 0 -1
    outer loop
      vertex 1 7 -0.8
      vertex -41.43 8.45 -0.8
      vertex 41.43 8.43375 -0.8
    endloop
  endfacet
  facet normal 0 0 -1
    outer loop
      vertex -39.4228 -2.83156 -0.8
      vertex -1 -4.67508 -0.8
      vertex -1 -7 -0.8
    endloop
  endfacet
  facet normal 0 0 -1
    outer loop
      vertex -1 -7 -0.8
      vertex -46.4468 -6.83619 -0.8
      vertex -41.48 -3.5 -0.8
    endloop
  endfacet
  facet normal 0 0 -1
    outer loop
      vertex 45.2604 1.22834 -0.8
      vertex 41.48 8.45 -0.8
      vertex 46.4468 6.83619 -0.8
    endloop
  endfacet
  facet normal 0 0 -1
    outer loop
      vertex 48.48 1 -0.8
      vertex 46.4468 6.83619 -0.8
      vertex 49.5164 2.61119 -0.8
    endloop
  endfacet
  facet normal 0 0 -1
    outer loop
      vertex 48.48 -1 -0.8
      vertex 49.5164 2.61119 -0.8
      vertex 49.5164 -2.61119 -0.8
    endloop
  endfacet
  facet normal 0 0 -1
    outer loop
      vertex -41.43 -8.43375 -0.8
      vertex -46.4468 -6.83619 -0.8
      vertex -1 -7 -0.8
    endloop
  endfacet
  facet normal 0 0 -1
    outer loop
      vertex -41.43 -8.43375 -0.8
      vertex -1 -7 -0.8
      vertex 1 -7 -0.8
    endloop
  endfacet
  facet normal 0 0 -1
    outer loop
      vertex -41.43 -8.43375 -0.8
      vertex 1 -7 -0.8
      vertex 46.4468 -6.83619 -0.8
    endloop
  endfacet
  facet normal 0 0 -1
    outer loop
      vertex 45.2604 -1.22834 -0.8
      vertex 46.4468 -6.83619 -0.8
      vertex 43.8164 -3.21584 -0.8
    endloop
  endfacet
  facet normal 0 0 -1
    outer loop
      vertex 46.4468 -6.83619 -0.8
      vertex 1 -4.67508 -0.8
      vertex 2.93893 -4.04508 -0.8
    endloop
  endfacet
  facet normal 0 0 -1
    outer loop
      vertex -39.4228 2.83156 -0.8
      vertex -4.75528 -1.54508 -0.8
      vertex -38.1513 1.08156 -0.8
    endloop
  endfacet
  facet normal 0 0 -1
    outer loop
      vertex 46.4468 -6.83619 -0.8
      vertex 4.75528 -1.54509 -0.8
      vertex 4.75528 -1 -0.8
    endloop
  endfacet
  facet normal 0 0 -1
    outer loop
      vertex 7 1 -0.8
      vertex 46.4468 -6.83619 -0.8
      vertex 7 -1 -0.8
    endloop
  endfacet
  facet normal 0 0 -1
    outer loop
      vertex 39.1436 3.21584 -0.8
      vertex 7 1 -0.8
      vertex 41.43 8.43375 -0.8
    endloop
  endfacet
  facet normal 0 0 -1
    outer loop
      vertex 4.75528 1.54508 -0.8
      vertex 7 1 -0.8
      vertex 4.75528 1 -0.8
    endloop
  endfacet
  facet normal 0 0 -1
    outer loop
      vertex -1 4.67508 -0.8
      vertex -41.43 8.45 -0.8
      vertex -1 7 -0.8
    endloop
  endfacet
  facet normal 0 0 -1
    outer loop
      vertex 7 1 -0.8
      vertex 4.75528 1.54508 -0.8
      vertex 41.43 8.43375 -0.8
    endloop
  endfacet
  facet normal 0 0 -1
    outer loop
      vertex -4.75528 1.54509 -0.8
      vertex -41.43 8.45 -0.8
      vertex -2.93893 4.04508 -0.8
    endloop
  endfacet
  facet normal 0 0 -1
    outer loop
      vertex 4.75528 1.54508 -0.8
      vertex 2.93893 4.04508 -0.8
      vertex 41.43 8.43375 -0.8
    endloop
  endfacet
  facet normal 0 0 -1
    outer loop
      vertex -2.93893 4.04508 -0.8
      vertex -41.43 8.45 -0.8
      vertex -1 4.67508 -0.8
    endloop
  endfacet
  facet normal 0 0 -1
    outer loop
      vertex 2.93893 4.04508 -0.8
      vertex 1 4.67508 -0.8
      vertex 41.43 8.43375 -0.8
    endloop
  endfacet
  facet normal 0 0 -1
    outer loop
      vertex -1 7 -0.8
      vertex -41.43 8.45 -0.8
      vertex 1 7 -0.8
    endloop
  endfacet
  facet normal 0 0 -1
    outer loop
      vertex 1 4.67508 -0.8
      vertex 1 7 -0.8
      vertex 41.43 8.43375 -0.8
    endloop
  endfacet
  facet normal 0 0 -1
    outer loop
      vertex -7 -1 -0.8
      vertex -46.4468 6.83619 -0.8
      vertex -7 1 -0.8
    endloop
  endfacet
  facet normal 0 0 -1
    outer loop
      vertex -7 -1 -0.8
      vertex -39.4228 2.83156 -0.8
      vertex -46.4468 6.83619 -0.8
    endloop
  endfacet
  facet normal 0 0 -1
    outer loop
      vertex -7 1 -0.8
      vertex -46.4468 6.83619 -0.8
      vertex -4.75528 1 -0.8
    endloop
  endfacet
  facet normal 0 0 -1
    outer loop
      vertex -4.75528 1 -0.8
      vertex -41.43 8.43375 -0.8
      vertex -4.75528 1.54509 -0.8
    endloop
  endfacet
  facet normal 0 0 -1
    outer loop
      vertex -4.75528 1.54509 -0.8
      vertex -41.43 8.43375 -0.8
      vertex -41.43 8.45 -0.8
    endloop
  endfacet
  facet normal 0 0 -1
    outer loop
      vertex 7 -1 -0.8
      vertex 46.4468 -6.83619 -0.8
      vertex 4.75528 -1 -0.8
    endloop
  endfacet
  facet normal 0 0 -1
    outer loop
      vertex -4.75528 -1.54508 -0.8
      vertex -7 -1 -0.8
      vertex -4.75528 -1 -0.8
    endloop
  endfacet
  facet normal 0 0 -1
    outer loop
      vertex -2.93893 -4.04508 -0.8
      vertex -38.1513 1.08156 -0.8
      vertex -4.75528 -1.54508 -0.8
    endloop
  endfacet
  facet normal 0 0 -1
    outer loop
      vertex -44.8087 1.08156 -0.8
      vertex -49.5164 2.61119 -0.8
      vertex -43.5372 2.83156 -0.8
    endloop
  endfacet
  facet normal 0 0 -1
    outer loop
      vertex -39.4228 2.83156 -0.8
      vertex -7 -1 -0.8
      vertex -4.75528 -1.54508 -0.8
    endloop
  endfacet
  facet normal 0 0 -1
    outer loop
      vertex 4.75528 -1.54509 -0.8
      vertex 46.4468 -6.83619 -0.8
      vertex 2.93893 -4.04508 -0.8
    endloop
  endfacet
  facet normal 0 0 -1
    outer loop
      vertex 46.4468 -6.83619 -0.8
      vertex 7 1 -0.8
      vertex 41.48 -3.975 -0.8
    endloop
  endfacet
  facet normal 0 0 -1
    outer loop
      vertex 46.4468 -6.83619 -0.8
      vertex 41.48 -3.975 -0.8
      vertex 43.8164 -3.21584 -0.8
    endloop
  endfacet
  facet normal 0 0 -1
    outer loop
      vertex 48.48 -1 -0.8
      vertex 46.4468 -6.83619 -0.8
      vertex 45.2604 -1.22834 -0.8
    endloop
  endfacet
  facet normal 0 0 -1
    outer loop
      vertex 45.2604 1 -0.8
      vertex 46.4468 6.83619 -0.8
      vertex 48.48 1 -0.8
    endloop
  endfacet
  facet normal 0 0 -1
    outer loop
      vertex 46.4468 -6.83619 -0.8
      vertex 48.48 -1 -0.8
      vertex 49.5164 -2.61119 -0.8
    endloop
  endfacet
  facet normal 0 0 -1
    outer loop
      vertex 41.48 3.975 -0.8
      vertex 41.43 8.43375 -0.8
      vertex 41.48 8.45 -0.8
    endloop
  endfacet
  facet normal 0 0 -1
    outer loop
      vertex 43.8164 3.21584 -0.8
      vertex 41.48 8.45 -0.8
      vertex 45.2604 1.22834 -0.8
    endloop
  endfacet
  facet normal 0 0 -1
    outer loop
      vertex 41.48 3.975 -0.8
      vertex 41.48 8.45 -0.8
      vertex 43.8164 3.21584 -0.8
    endloop
  endfacet
  facet normal 0 0 -1
    outer loop
      vertex 45.2604 1 -0.8
      vertex 45.2604 1.22834 -0.8
      vertex 46.4468 6.83619 -0.8
    endloop
  endfacet
  facet normal 0 0 -1
    outer loop
      vertex 39.1436 3.21584 -0.8
      vertex 41.43 8.43375 -0.8
      vertex 41.48 3.975 -0.8
    endloop
  endfacet
  facet normal 0 0 -1
    outer loop
      vertex 37.6995 1.22834 -0.8
      vertex 7 1 -0.8
      vertex 39.1436 3.21584 -0.8
    endloop
  endfacet
  facet normal 0 0 -1
    outer loop
      vertex 34.48 -1 -0.8
      vertex 7 1 -0.8
      vertex 34.48 1 -0.8
    endloop
  endfacet
  facet normal 0 0 -1
    outer loop
      vertex 34.48 1 -0.8
      vertex 7 1 -0.8
      vertex 37.6995 1.22834 -0.8
    endloop
  endfacet
  facet normal 0 0 -1
    outer loop
      vertex 39.1436 -3.21584 -0.8
      vertex 34.48 -1 -0.8
      vertex 37.6995 -1.22834 -0.8
    endloop
  endfacet
  facet normal 0 0 -1
    outer loop
      vertex 37.6995 1 -0.8
      vertex 34.48 1 -0.8
      vertex 37.6995 1.22834 -0.8
    endloop
  endfacet
  facet normal 0 0 -1
    outer loop
      vertex 39.1436 -3.21584 -0.8
      vertex 7 1 -0.8
      vertex 34.48 -1 -0.8
    endloop
  endfacet
  facet normal 0 0 -1
    outer loop
      vertex 37.6995 -1.22834 -0.8
      vertex 34.48 -1 -0.8
      vertex 37.6995 -1 -0.8
    endloop
  endfacet
  facet normal 0 0 -1
    outer loop
      vertex -38.1513 1.08156 -0.8
      vertex -1 -4.67508 -0.8
      vertex -38.1513 -1.08156 -0.8
    endloop
  endfacet
  facet normal 0 0 -1
    outer loop
      vertex 41.48 -3.975 -0.8
      vertex 7 1 -0.8
      vertex 39.1436 -3.21584 -0.8
    endloop
  endfacet
  facet normal 0 0 -1
    outer loop
      vertex -41.48 -3.5 -0.8
      vertex -49.5164 -2.61119 -0.8
      vertex -43.5372 -2.83156 -0.8
    endloop
  endfacet
  facet normal 0 0 -1
    outer loop
      vertex 48.48 1 -0.8
      vertex 49.5164 2.61119 -0.8
      vertex 48.48 -1 -0.8
    endloop
  endfacet
  facet normal 0 0 -1
    outer loop
      vertex -38.1513 1.08156 -0.8
      vertex -2.93893 -4.04508 -0.8
      vertex -1 -4.67508 -0.8
    endloop
  endfacet
  facet normal 0 0 -1
    outer loop
      vertex -43.5372 2.83156 -0.8
      vertex -49.5164 2.61119 -0.8
      vertex -41.48 3.5 -0.8
    endloop
  endfacet
  facet normal 0 0 -1
    outer loop
      vertex -39.4228 2.83156 -0.8
      vertex -41.48 3.5 -0.8
      vertex -46.4468 6.83619 -0.8
    endloop
  endfacet
  facet normal 0 0 -1
    outer loop
      vertex -44.8087 -1.08156 -0.8
      vertex -49.5164 2.61119 -0.8
      vertex -44.8087 1.08156 -0.8
    endloop
  endfacet
  facet normal 0 0 -1
    outer loop
      vertex -43.5372 -2.83156 -0.8
      vertex -49.5164 -2.61119 -0.8
      vertex -44.8087 -1.08156 -0.8
    endloop
  endfacet
  facet normal 0 0 -1
    outer loop
      vertex -39.4228 -2.83156 -0.8
      vertex -1 -7 -0.8
      vertex -41.48 -3.5 -0.8
    endloop
  endfacet
  facet normal 0 0 -1
    outer loop
      vertex -1 -4.67508 -0.8
      vertex -39.4228 -2.83156 -0.8
      vertex -38.1513 -1.08156 -0.8
    endloop
  endfacet
  facet normal -0.309017 -0.951057 0
    outer loop
      vertex 41.48 -8.45 0.8
      vertex 41.43 -8.43375 0.8
      vertex 41.43 -8.43375 -0.8
    endloop
  endfacet
  facet normal -0.309017 -0.951057 0
    outer loop
      vertex 41.48 -8.45 -0.8
      vertex 41.48 -8.45 0.8
      vertex 41.43 -8.43375 -0.8
    endloop
  endfacet
  facet normal 0.309017 -0.951057 0
    outer loop
      vertex 46.4468 -6.83619 -0.8
      vertex 46.4468 -6.83619 0.8
      vertex 41.48 -8.45 0.8
    endloop
  endfacet
  facet normal 0.309017 -0.951057 0
    outer loop
      vertex 41.48 -8.45 -0.8
      vertex 46.4468 -6.83619 -0.8
      vertex 41.48 -8.45 0.8
    endloop
  endfacet
  facet normal 0.809017 -0.587785 0
    outer loop
      vertex 49.5164 -2.61119 -0.8
      vertex 49.5164 -2.61119 0.8
      vertex 46.4468 -6.83619 0.8
    endloop
  endfacet
  facet normal 0.809017 -0.587785 0
    outer loop
      vertex 46.4468 -6.83619 -0.8
      vertex 49.5164 -2.61119 -0.8
      vertex 46.4468 -6.83619 0.8
    endloop
  endfacet
  facet normal 1 -2.22045e-16 0
    outer loop
      vertex 49.5164 2.61119 -0.8
      vertex 49.5164 2.61119 0.8
      vertex 49.5164 -2.61119 0.8
    endloop
  endfacet
  facet normal 1 -2.22045e-16 0
    outer loop
      vertex 49.5164 -2.61119 -0.8
      vertex 49.5164 2.61119 -0.8
      vertex 49.5164 -2.61119 0.8
    endloop
  endfacet
  facet normal 0.809017 0.587785 0
    outer loop
      vertex 46.4468 6.83619 -0.8
      vertex 46.4468 6.83619 0.8
      vertex 49.5164 2.61119 0.8
    endloop
  endfacet
  facet normal 0.809017 0.587785 0
    outer loop
      vertex 49.5164 2.61119 -0.8
      vertex 46.4468 6.83619 -0.8
      vertex 49.5164 2.61119 0.8
    endloop
  endfacet
  facet normal 0.309017 0.951057 0
    outer loop
      vertex 41.48 8.45 0.8
      vertex 46.4468 6.83619 0.8
      vertex 41.48 8.45 -0.8
    endloop
  endfacet
  facet normal 0.309017 0.951057 0
    outer loop
      vertex 41.48 8.45 -0.8
      vertex 46.4468 6.83619 0.8
      vertex 46.4468 6.83619 -0.8
    endloop
  endfacet
  facet normal -0.309017 0.951057 0
    outer loop
      vertex 41.48 8.45 0.8
      vertex 41.48 8.45 -0.8
      vertex 41.43 8.43375 0.8
    endloop
  endfacet
  facet normal -0.309017 0.951057 0
    outer loop
      vertex 41.43 8.43375 0.8
      vertex 41.48 8.45 -0.8
      vertex 41.43 8.43375 -0.8
    endloop
  endfacet
  facet normal 1 -2.22045e-16 0
    outer loop
      vertex 41.43 8.45 -0.8
      vertex 41.43 8.45 0.8
      vertex 41.43 8.43375 0.8
    endloop
  endfacet
  facet normal 1 -2.22045e-16 0
    outer loop
      vertex 41.43 8.43375 -0.8
      vertex 41.43 8.45 -0.8
      vertex 41.43 8.43375 0.8
    endloop
  endfacet
  facet normal 2.22045e-16 1 0
    outer loop
      vertex -22.5614 8.45 0.8
      vertex -41.43 8.45 -0.8
      vertex -41.43 8.45 0.8
    endloop
  endfacet
  facet normal 2.22045e-16 1 0
    outer loop
      vertex -21.43 8.45 -0.331371
      vertex -41.43 8.45 -0.8
      vertex -22.5614 8.45 0.8
    endloop
  endfacet
  facet normal 2.22045e-16 1 0
    outer loop
      vertex 20.2986 8.45 0.8
      vertex -21.43 8.45 -0.331371
      vertex -20.2986 8.45 0.8
    endloop
  endfacet
  facet normal 2.22045e-16 1 0
    outer loop
      vertex 41.43 8.45 -0.8
      vertex -41.43 8.45 -0.8
      vertex 21.43 8.45 -0.331371
    endloop
  endfacet
  facet normal 2.22045e-16 1 0
    outer loop
      vertex 41.43 8.45 -0.8
      vertex 21.43 8.45 -0.331371
      vertex 41.43 8.45 0.8
    endloop
  endfacet
  facet normal 2.22045e-16 1 0
    outer loop
      vertex 21.43 8.45 -0.331371
      vertex -41.43 8.45 -0.8
      vertex -21.43 8.45 -0.331371
    endloop
  endfacet
  facet normal 2.22045e-16 1 0
    outer loop
      vertex 21.43 8.45 -0.331371
      vertex -21.43 8.45 -0.331371
      vertex 20.2986 8.45 0.8
    endloop
  endfacet
  facet normal 2.22045e-16 1 0
    outer loop
      vertex 22.5614 8.45 0.8
      vertex 41.43 8.45 0.8
      vertex 21.43 8.45 -0.331371
    endloop
  endfacet
  facet normal -1 2.22045e-16 0
    outer loop
      vertex -41.43 8.43375 -0.8
      vertex -41.43 8.43375 0.8
      vertex -41.43 8.45 -0.8
    endloop
  endfacet
  facet normal -1 2.22045e-16 0
    outer loop
      vertex -41.43 8.45 -0.8
      vertex -41.43 8.43375 0.8
      vertex -41.43 8.45 0.8
    endloop
  endfacet
  facet normal 0.309017 0.951057 0
    outer loop
      vertex -41.43 8.43375 -0.8
      vertex -41.48 8.45 -0.8
      vertex -41.43 8.43375 0.8
    endloop
  endfacet
  facet normal 0.309017 0.951057 0
    outer loop
      vertex -41.43 8.43375 0.8
      vertex -41.48 8.45 -0.8
      vertex -41.48 8.45 0.8
    endloop
  endfacet
  facet normal -0.309017 0.951057 0
    outer loop
      vertex -46.4468 6.83619 -0.8
      vertex -46.4468 6.83619 0.8
      vertex -41.48 8.45 -0.8
    endloop
  endfacet
  facet normal -0.309017 0.951057 0
    outer loop
      vertex -41.48 8.45 -0.8
      vertex -46.4468 6.83619 0.8
      vertex -41.48 8.45 0.8
    endloop
  endfacet
  facet normal -0.809017 0.587785 0
    outer loop
      vertex -49.5164 2.61119 -0.8
      vertex -49.5164 2.61119 0.8
      vertex -46.4468 6.83619 -0.8
    endloop
  endfacet
  facet normal -0.809017 0.587785 0
    outer loop
      vertex -46.4468 6.83619 -0.8
      vertex -49.5164 2.61119 0.8
      vertex -46.4468 6.83619 0.8
    endloop
  endfacet
  facet normal -1 2.22045e-16 0
    outer loop
      vertex -49.5164 -2.61119 -0.8
      vertex -49.5164 -2.61119 0.8
      vertex -49.5164 2.61119 -0.8
    endloop
  endfacet
  facet normal -1 2.22045e-16 0
    outer loop
      vertex -49.5164 2.61119 -0.8
      vertex -49.5164 -2.61119 0.8
      vertex -49.5164 2.61119 0.8
    endloop
  endfacet
  facet normal -0.809017 -0.587785 0
    outer loop
      vertex -46.4468 -6.83619 -0.8
      vertex -46.4468 -6.83619 0.8
      vertex -49.5164 -2.61119 -0.8
    endloop
  endfacet
  facet normal -0.809017 -0.587785 0
    outer loop
      vertex -49.5164 -2.61119 -0.8
      vertex -46.4468 -6.83619 0.8
      vertex -49.5164 -2.61119 0.8
    endloop
  endfacet
  facet normal -0.309017 -0.951057 0
    outer loop
      vertex -46.4468 -6.83619 -0.8
      vertex -41.48 -8.45 -0.8
      vertex -41.48 -8.45 0.8
    endloop
  endfacet
  facet normal -0.309017 -0.951057 0
    outer loop
      vertex -46.4468 -6.83619 0.8
      vertex -46.4468 -6.83619 -0.8
      vertex -41.48 -8.45 0.8
    endloop
  endfacet
  facet normal 0.309017 -0.951057 0
    outer loop
      vertex -41.48 -8.45 0.8
      vertex -41.48 -8.45 -0.8
      vertex -41.43 -8.43375 -0.8
    endloop
  endfacet
  facet normal 0.309017 -0.951057 0
    outer loop
      vertex -41.43 -8.43375 0.8
      vertex -41.48 -8.45 0.8
      vertex -41.43 -8.43375 -0.8
    endloop
  endfacet
  facet normal -1 2.22045e-16 0
    outer loop
      vertex -41.43 -8.45 -0.8
      vertex -41.43 -8.45 0.8
      vertex -41.43 -8.43375 -0.8
    endloop
  endfacet
  facet normal -1 2.22045e-16 0
    outer loop
      vertex -41.43 -8.43375 -0.8
      vertex -41.43 -8.45 0.8
      vertex -41.43 -8.43375 0.8
    endloop
  endfacet
  facet normal -2.22045e-16 -1 0
    outer loop
      vertex 21.43 -8.45 -0.331371
      vertex 41.43 -8.45 -0.8
      vertex 41.43 -8.45 0.8
    endloop
  endfacet
  facet normal -2.22045e-16 -1 0
    outer loop
      vertex -41.43 -8.45 -0.8
      vertex 41.43 -8.45 -0.8
      vertex 21.43 -8.45 -0.331371
    endloop
  endfacet
  facet normal -2.22045e-16 -1 0
    outer loop
      vertex -21.43 -8.45 -0.331371
      vertex -22.5614 -8.45 0.8
      vertex -41.43 -8.45 -0.8
    endloop
  endfacet
  facet normal -2.22045e-16 -1 0
    outer loop
      vertex 21.43 -8.45 -0.331371
      vertex 20.2986 -8.45 0.8
      vertex -21.43 -8.45 -0.331371
    endloop
  endfacet
  facet normal -2.22045e-16 -1 0
    outer loop
      vertex -20.2986 -8.45 0.8
      vertex -21.43 -8.45 -0.331371
      vertex 20.2986 -8.45 0.8
    endloop
  endfacet
  facet normal -2.22045e-16 -1 0
    outer loop
      vertex -41.43 -8.45 0.8
      vertex -41.43 -8.45 -0.8
      vertex -22.5614 -8.45 0.8
    endloop
  endfacet
  facet normal -2.22045e-16 -1 0
    outer loop
      vertex 21.43 -8.45 -0.331371
      vertex -21.43 -8.45 -0.331371
      vertex -41.43 -8.45 -0.8
    endloop
  endfacet
  facet normal -2.22045e-16 -1 0
    outer loop
      vertex 22.5614 -8.45 0.8
      vertex 21.43 -8.45 -0.331371
      vertex 41.43 -8.45 0.8
    endloop
  endfacet
  facet normal 1 -2.22045e-16 0
    outer loop
      vertex 41.43 -8.43375 -0.8
      vertex 41.43 -8.43375 0.8
      vertex 41.43 -8.45 0.8
    endloop
  endfacet
  facet normal 1 -2.22045e-16 0
    outer loop
      vertex 41.43 -8.45 -0.8
      vertex 41.43 -8.43375 -0.8
      vertex 41.43 -8.45 0.8
    endloop
  endfacet
  facet normal 3.44509e-16 1 0
    outer loop
      vertex -1 -7 0.8
      vertex 1 -7 0.8
      vertex -1 -7 -0.8
    endloop
  endfacet
  facet normal 3.44509e-16 1 0
    outer loop
      vertex -1 -7 -0.8
      vertex 1 -7 0.8
      vertex 1 -7 -0.8
    endloop
  endfacet
  facet normal 1 -3.44509e-16 0
    outer loop
      vertex -1 -4.67508 -0.8
      vertex -1 -4.67508 0.8
      vertex -1 -7 0.8
    endloop
  endfacet
  facet normal 1 -3.44509e-16 0
    outer loop
      vertex -1 -7 -0.8
      vertex -1 -4.67508 -0.8
      vertex -1 -7 0.8
    endloop
  endfacet
  facet normal 0.309017 0.951057 0
    outer loop
      vertex -2.93893 -4.04508 0.8
      vertex -1 -4.67508 0.8
      vertex -2.93893 -4.04508 -0.8
    endloop
  endfacet
  facet normal 0.309017 0.951057 0
    outer loop
      vertex -2.93893 -4.04508 -0.8
      vertex -1 -4.67508 0.8
      vertex -1 -4.67508 -0.8
    endloop
  endfacet
  facet normal 0.809017 0.587785 0
    outer loop
      vertex -4.75528 -1.54508 -0.8
      vertex -4.75528 -1.54508 0.8
      vertex -2.93893 -4.04508 0.8
    endloop
  endfacet
  facet normal 0.809017 0.587785 0
    outer loop
      vertex -2.93893 -4.04508 -0.8
      vertex -4.75528 -1.54508 -0.8
      vertex -2.93893 -4.04508 0.8
    endloop
  endfacet
  facet normal 1 -2.22045e-16 0
    outer loop
      vertex -4.75528 -1 -0.8
      vertex -4.75528 -1 0.8
      vertex -4.75528 -1.54508 0.8
    endloop
  endfacet
  facet normal 1 -2.22045e-16 0
    outer loop
      vertex -4.75528 -1.54508 -0.8
      vertex -4.75528 -1 -0.8
      vertex -4.75528 -1.54508 0.8
    endloop
  endfacet
  facet normal 4.44089e-16 1 0
    outer loop
      vertex -7 -1 0.8
      vertex -4.75528 -1 0.8
      vertex -7 -1 -0.8
    endloop
  endfacet
  facet normal 4.44089e-16 1 0
    outer loop
      vertex -7 -1 -0.8
      vertex -4.75528 -1 0.8
      vertex -4.75528 -1 -0.8
    endloop
  endfacet
  facet normal 1 -4.44089e-16 0
    outer loop
      vertex -7 1 -0.8
      vertex -7 1 0.8
      vertex -7 -1 0.8
    endloop
  endfacet
  facet normal 1 -4.44089e-16 0
    outer loop
      vertex -7 -1 -0.8
      vertex -7 1 -0.8
      vertex -7 -1 0.8
    endloop
  endfacet
  facet normal -4.44089e-16 -1 0
    outer loop
      vertex -4.75528 1 0.8
      vertex -7 1 0.8
      vertex -7 1 -0.8
    endloop
  endfacet
  facet normal -4.44089e-16 -1 0
    outer loop
      vertex -4.75528 1 -0.8
      vertex -4.75528 1 0.8
      vertex -7 1 -0.8
    endloop
  endfacet
  facet normal 1 -2.22045e-16 0
    outer loop
      vertex -4.75528 1.54509 -0.8
      vertex -4.75528 1.54509 0.8
      vertex -4.75528 1 0.8
    endloop
  endfacet
  facet normal 1 -2.22045e-16 0
    outer loop
      vertex -4.75528 1 -0.8
      vertex -4.75528 1.54509 -0.8
      vertex -4.75528 1 0.8
    endloop
  endfacet
  facet normal 0.809017 -0.587785 0
    outer loop
      vertex -2.93893 4.04508 -0.8
      vertex -2.93893 4.04508 0.8
      vertex -4.75528 1.54509 0.8
    endloop
  endfacet
  facet normal 0.809017 -0.587785 0
    outer loop
      vertex -4.75528 1.54509 -0.8
      vertex -2.93893 4.04508 -0.8
      vertex -4.75528 1.54509 0.8
    endloop
  endfacet
  facet normal 0.309017 -0.951057 0
    outer loop
      vertex -1 4.67508 -0.8
      vertex -1 4.67508 0.8
      vertex -2.93893 4.04508 0.8
    endloop
  endfacet
  facet normal 0.309017 -0.951057 0
    outer loop
      vertex -2.93893 4.04508 -0.8
      vertex -1 4.67508 -0.8
      vertex -2.93893 4.04508 0.8
    endloop
  endfacet
  facet normal 1 -4.66974e-16 0
    outer loop
      vertex -1 7 -0.8
      vertex -1 7 0.8
      vertex -1 4.67508 0.8
    endloop
  endfacet
  facet normal 1 -4.66974e-16 0
    outer loop
      vertex -1 4.67508 -0.8
      vertex -1 7 -0.8
      vertex -1 4.67508 0.8
    endloop
  endfacet
  facet normal -4.66974e-16 -1 0
    outer loop
      vertex 1 7 0.8
      vertex -1 7 0.8
      vertex -1 7 -0.8
    endloop
  endfacet
  facet normal -4.66974e-16 -1 0
    outer loop
      vertex 1 7 -0.8
      vertex 1 7 0.8
      vertex -1 7 -0.8
    endloop
  endfacet
  facet normal -1 4.66974e-16 0
    outer loop
      vertex 1 7 0.8
      vertex 1 7 -0.8
      vertex 1 4.67508 0.8
    endloop
  endfacet
  facet normal -1 4.66974e-16 0
    outer loop
      vertex 1 4.67508 0.8
      vertex 1 7 -0.8
      vertex 1 4.67508 -0.8
    endloop
  endfacet
  facet normal -0.309017 -0.951057 0
    outer loop
      vertex 2.93893 4.04508 0.8
      vertex 1 4.67508 0.8
      vertex 1 4.67508 -0.8
    endloop
  endfacet
  facet normal -0.309017 -0.951057 0
    outer loop
      vertex 2.93893 4.04508 -0.8
      vertex 2.93893 4.04508 0.8
      vertex 1 4.67508 -0.8
    endloop
  endfacet
  facet normal -0.809017 -0.587785 0
    outer loop
      vertex 2.93893 4.04508 0.8
      vertex 2.93893 4.04508 -0.8
      vertex 4.75528 1.54508 0.8
    endloop
  endfacet
  facet normal -0.809017 -0.587785 0
    outer loop
      vertex 4.75528 1.54508 0.8
      vertex 2.93893 4.04508 -0.8
      vertex 4.75528 1.54508 -0.8
    endloop
  endfacet
  facet normal -1 2.22045e-16 0
    outer loop
      vertex 4.75528 1.54508 0.8
      vertex 4.75528 1.54508 -0.8
      vertex 4.75528 1 0.8
    endloop
  endfacet
  facet normal -1 2.22045e-16 0
    outer loop
      vertex 4.75528 1 0.8
      vertex 4.75528 1.54508 -0.8
      vertex 4.75528 1 -0.8
    endloop
  endfacet
  facet normal -4.44089e-16 -1 0
    outer loop
      vertex 7 1 0.8
      vertex 4.75528 1 0.8
      vertex 4.75528 1 -0.8
    endloop
  endfacet
  facet normal -4.44089e-16 -1 0
    outer loop
      vertex 7 1 -0.8
      vertex 7 1 0.8
      vertex 4.75528 1 -0.8
    endloop
  endfacet
  facet normal -1 4.44089e-16 0
    outer loop
      vertex 7 1 0.8
      vertex 7 1 -0.8
      vertex 7 -1 0.8
    endloop
  endfacet
  facet normal -1 4.44089e-16 0
    outer loop
      vertex 7 -1 0.8
      vertex 7 1 -0.8
      vertex 7 -1 -0.8
    endloop
  endfacet
  facet normal 4.44089e-16 1 0
    outer loop
      vertex 4.75528 -1 0.8
      vertex 7 -1 0.8
      vertex 4.75528 -1 -0.8
    endloop
  endfacet
  facet normal 4.44089e-16 1 0
    outer loop
      vertex 4.75528 -1 -0.8
      vertex 7 -1 0.8
      vertex 7 -1 -0.8
    endloop
  endfacet
  facet normal -1 2.22045e-16 0
    outer loop
      vertex 4.75528 -1 0.8
      vertex 4.75528 -1 -0.8
      vertex 4.75528 -1.54509 0.8
    endloop
  endfacet
  facet normal -1 2.22045e-16 0
    outer loop
      vertex 4.75528 -1.54509 0.8
      vertex 4.75528 -1 -0.8
      vertex 4.75528 -1.54509 -0.8
    endloop
  endfacet
  facet normal -0.809017 0.587785 0
    outer loop
      vertex 4.75528 -1.54509 0.8
      vertex 4.75528 -1.54509 -0.8
      vertex 2.93893 -4.04508 0.8
    endloop
  endfacet
  facet normal -0.809017 0.587785 0
    outer loop
      vertex 2.93893 -4.04508 0.8
      vertex 4.75528 -1.54509 -0.8
      vertex 2.93893 -4.04508 -0.8
    endloop
  endfacet
  facet normal -0.309017 0.951057 0
    outer loop
      vertex 2.93893 -4.04508 0.8
      vertex 2.93893 -4.04508 -0.8
      vertex 1 -4.67508 0.8
    endloop
  endfacet
  facet normal -0.309017 0.951057 0
    outer loop
      vertex 1 -4.67508 0.8
      vertex 2.93893 -4.04508 -0.8
      vertex 1 -4.67508 -0.8
    endloop
  endfacet
  facet normal -1 3.44509e-16 0
    outer loop
      vertex 1 -4.67508 0.8
      vertex 1 -4.67508 -0.8
      vertex 1 -7 0.8
    endloop
  endfacet
  facet normal -1 3.44509e-16 0
    outer loop
      vertex 1 -7 0.8
      vertex 1 -4.67508 -0.8
      vertex 1 -7 -0.8
    endloop
  endfacet
  facet normal 0.309017 0.951057 0
    outer loop
      vertex 39.1436 -3.21584 0.8
      vertex 41.48 -3.975 0.8
      vertex 39.1436 -3.21584 -0.8
    endloop
  endfacet
  facet normal 0.309017 0.951057 0
    outer loop
      vertex 39.1436 -3.21584 -0.8
      vertex 41.48 -3.975 0.8
      vertex 41.48 -3.975 -0.8
    endloop
  endfacet
  facet normal -0.309017 0.951057 0
    outer loop
      vertex 43.8164 -3.21584 0.8
      vertex 43.8164 -3.21584 -0.8
      vertex 41.48 -3.975 0.8
    endloop
  endfacet
  facet normal -0.309017 0.951057 0
    outer loop
      vertex 41.48 -3.975 0.8
      vertex 43.8164 -3.21584 -0.8
      vertex 41.48 -3.975 -0.8
    endloop
  endfacet
  facet normal 0.809017 0.587785 0
    outer loop
      vertex 37.6995 -1.22834 -0.8
      vertex 37.6995 -1.22834 0.8
      vertex 39.1436 -3.21584 0.8
    endloop
  endfacet
  facet normal 0.809017 0.587785 0
    outer loop
      vertex 39.1436 -3.21584 -0.8
      vertex 37.6995 -1.22834 -0.8
      vertex 39.1436 -3.21584 0.8
    endloop
  endfacet
  facet normal 1 -2.22045e-16 0
    outer loop
      vertex 37.6995 -1 -0.8
      vertex 37.6995 -1 0.8
      vertex 37.6995 -1.22834 0.8
    endloop
  endfacet
  facet normal 1 -2.22045e-16 0
    outer loop
      vertex 37.6995 -1.22834 -0.8
      vertex 37.6995 -1 -0.8
      vertex 37.6995 -1.22834 0.8
    endloop
  endfacet
  facet normal 4.44089e-16 1 0
    outer loop
      vertex 34.48 -1 0.8
      vertex 37.6995 -1 0.8
      vertex 34.48 -1 -0.8
    endloop
  endfacet
  facet normal 4.44089e-16 1 0
    outer loop
      vertex 34.48 -1 -0.8
      vertex 37.6995 -1 0.8
      vertex 37.6995 -1 -0.8
    endloop
  endfacet
  facet normal 1 -4.44089e-16 0
    outer loop
      vertex 34.48 1 -0.8
      vertex 34.48 1 0.8
      vertex 34.48 -1 0.8
    endloop
  endfacet
  facet normal 1 -4.44089e-16 0
    outer loop
      vertex 34.48 -1 -0.8
      vertex 34.48 1 -0.8
      vertex 34.48 -1 0.8
    endloop
  endfacet
  facet normal -4.44089e-16 -1 0
    outer loop
      vertex 37.6995 1 0.8
      vertex 34.48 1 0.8
      vertex 34.48 1 -0.8
    endloop
  endfacet
  facet normal -4.44089e-16 -1 0
    outer loop
      vertex 37.6995 1 -0.8
      vertex 37.6995 1 0.8
      vertex 34.48 1 -0.8
    endloop
  endfacet
  facet normal 1 -2.22045e-16 0
    outer loop
      vertex 37.6995 1.22834 -0.8
      vertex 37.6995 1.22834 0.8
      vertex 37.6995 1 0.8
    endloop
  endfacet
  facet normal 1 -2.22045e-16 0
    outer loop
      vertex 37.6995 1 -0.8
      vertex 37.6995 1.22834 -0.8
      vertex 37.6995 1 0.8
    endloop
  endfacet
  facet normal 0.809017 -0.587785 0
    outer loop
      vertex 39.1436 3.21584 -0.8
      vertex 39.1436 3.21584 0.8
      vertex 37.6995 1.22834 0.8
    endloop
  endfacet
  facet normal 0.809017 -0.587785 0
    outer loop
      vertex 37.6995 1.22834 -0.8
      vertex 39.1436 3.21584 -0.8
      vertex 37.6995 1.22834 0.8
    endloop
  endfacet
  facet normal 0.309017 -0.951057 0
    outer loop
      vertex 41.48 3.975 -0.8
      vertex 41.48 3.975 0.8
      vertex 39.1436 3.21584 0.8
    endloop
  endfacet
  facet normal 0.309017 -0.951057 0
    outer loop
      vertex 39.1436 3.21584 -0.8
      vertex 41.48 3.975 -0.8
      vertex 39.1436 3.21584 0.8
    endloop
  endfacet
  facet normal -0.309017 -0.951057 0
    outer loop
      vertex 43.8164 3.21584 0.8
      vertex 41.48 3.975 0.8
      vertex 41.48 3.975 -0.8
    endloop
  endfacet
  facet normal -0.309017 -0.951057 0
    outer loop
      vertex 43.8164 3.21584 -0.8
      vertex 43.8164 3.21584 0.8
      vertex 41.48 3.975 -0.8
    endloop
  endfacet
  facet normal -0.809017 -0.587785 0
    outer loop
      vertex 43.8164 3.21584 0.8
      vertex 43.8164 3.21584 -0.8
      vertex 45.2604 1.22834 0.8
    endloop
  endfacet
  facet normal -0.809017 -0.587785 0
    outer loop
      vertex 45.2604 1.22834 0.8
      vertex 43.8164 3.21584 -0.8
      vertex 45.2604 1.22834 -0.8
    endloop
  endfacet
  facet normal -1 2.22045e-16 0
    outer loop
      vertex 45.2604 1.22834 0.8
      vertex 45.2604 1.22834 -0.8
      vertex 45.2604 1 0.8
    endloop
  endfacet
  facet normal -1 2.22045e-16 0
    outer loop
      vertex 45.2604 1 0.8
      vertex 45.2604 1.22834 -0.8
      vertex 45.2604 1 -0.8
    endloop
  endfacet
  facet normal -4.44089e-16 -1 0
    outer loop
      vertex 48.48 1 0.8
      vertex 45.2604 1 0.8
      vertex 45.2604 1 -0.8
    endloop
  endfacet
  facet normal -4.44089e-16 -1 0
    outer loop
      vertex 48.48 1 -0.8
      vertex 48.48 1 0.8
      vertex 45.2604 1 -0.8
    endloop
  endfacet
  facet normal -1 4.44089e-16 0
    outer loop
      vertex 48.48 1 0.8
      vertex 48.48 1 -0.8
      vertex 48.48 -1 0.8
    endloop
  endfacet
  facet normal -1 4.44089e-16 0
    outer loop
      vertex 48.48 -1 0.8
      vertex 48.48 1 -0.8
      vertex 48.48 -1 -0.8
    endloop
  endfacet
  facet normal 4.44089e-16 1 0
    outer loop
      vertex 45.2604 -1 0.8
      vertex 48.48 -1 0.8
      vertex 45.2604 -1 -0.8
    endloop
  endfacet
  facet normal 4.44089e-16 1 0
    outer loop
      vertex 45.2604 -1 -0.8
      vertex 48.48 -1 0.8
      vertex 48.48 -1 -0.8
    endloop
  endfacet
  facet normal -1 2.22045e-16 0
    outer loop
      vertex 45.2604 -1 0.8
      vertex 45.2604 -1 -0.8
      vertex 45.2604 -1.22834 0.8
    endloop
  endfacet
  facet normal -1 2.22045e-16 0
    outer loop
      vertex 45.2604 -1.22834 0.8
      vertex 45.2604 -1 -0.8
      vertex 45.2604 -1.22834 -0.8
    endloop
  endfacet
  facet normal -0.809017 0.587785 0
    outer loop
      vertex 45.2604 -1.22834 0.8
      vertex 45.2604 -1.22834 -0.8
      vertex 43.8164 -3.21584 0.8
    endloop
  endfacet
  facet normal -0.809017 0.587785 0
    outer loop
      vertex 43.8164 -3.21584 0.8
      vertex 45.2604 -1.22834 -0.8
      vertex 43.8164 -3.21584 -0.8
    endloop
  endfacet
  facet normal 0.309017 0.951056 0
    outer loop
      vertex -43.5372 -2.83156 0.8
      vertex -41.48 -3.5 0.8
      vertex -43.5372 -2.83156 -0.8
    endloop
  endfacet
  facet normal 0.309017 0.951056 0
    outer loop
      vertex -43.5372 -2.83156 -0.8
      vertex -41.48 -3.5 0.8
      vertex -41.48 -3.5 -0.8
    endloop
  endfacet
  facet normal -0.309017 0.951056 0
    outer loop
      vertex -39.4228 -2.83156 0.8
      vertex -39.4228 -2.83156 -0.8
      vertex -41.48 -3.5 0.8
    endloop
  endfacet
  facet normal -0.309017 0.951056 0
    outer loop
      vertex -41.48 -3.5 0.8
      vertex -39.4228 -2.83156 -0.8
      vertex -41.48 -3.5 -0.8
    endloop
  endfacet
  facet normal 0.809017 0.587785 0
    outer loop
      vertex -44.8087 -1.08156 -0.8
      vertex -44.8087 -1.08156 0.8
      vertex -43.5372 -2.83156 0.8
    endloop
  endfacet
  facet normal 0.809017 0.587785 0
    outer loop
      vertex -43.5372 -2.83156 -0.8
      vertex -44.8087 -1.08156 -0.8
      vertex -43.5372 -2.83156 0.8
    endloop
  endfacet
  facet normal 1 -2.22045e-16 0
    outer loop
      vertex -44.8087 1.08156 -0.8
      vertex -44.8087 1.08156 0.8
      vertex -44.8087 -1.08156 0.8
    endloop
  endfacet
  facet normal 1 -2.22045e-16 0
    outer loop
      vertex -44.8087 -1.08156 -0.8
      vertex -44.8087 1.08156 -0.8
      vertex -44.8087 -1.08156 0.8
    endloop
  endfacet
  facet normal 0.809017 -0.587785 0
    outer loop
      vertex -43.5372 2.83156 -0.8
      vertex -43.5372 2.83156 0.8
      vertex -44.8087 1.08156 0.8
    endloop
  endfacet
  facet normal 0.809017 -0.587785 0
    outer loop
      vertex -44.8087 1.08156 -0.8
      vertex -43.5372 2.83156 -0.8
      vertex -44.8087 1.08156 0.8
    endloop
  endfacet
  facet normal 0.309017 -0.951056 0
    outer loop
      vertex -41.48 3.5 -0.8
      vertex -41.48 3.5 0.8
      vertex -43.5372 2.83156 0.8
    endloop
  endfacet
  facet normal 0.309017 -0.951056 0
    outer loop
      vertex -43.5372 2.83156 -0.8
      vertex -41.48 3.5 -0.8
      vertex -43.5372 2.83156 0.8
    endloop
  endfacet
  facet normal -0.309017 -0.951056 0
    outer loop
      vertex -39.4228 2.83156 0.8
      vertex -41.48 3.5 0.8
      vertex -41.48 3.5 -0.8
    endloop
  endfacet
  facet normal -0.309017 -0.951056 0
    outer loop
      vertex -39.4228 2.83156 -0.8
      vertex -39.4228 2.83156 0.8
      vertex -41.48 3.5 -0.8
    endloop
  endfacet
  facet normal -0.809017 -0.587785 0
    outer loop
      vertex -39.4228 2.83156 0.8
      vertex -39.4228 2.83156 -0.8
      vertex -38.1513 1.08156 0.8
    endloop
  endfacet
  facet normal -0.809017 -0.587785 0
    outer loop
      vertex -38.1513 1.08156 0.8
      vertex -39.4228 2.83156 -0.8
      vertex -38.1513 1.08156 -0.8
    endloop
  endfacet
  facet normal -1 2.22045e-16 0
    outer loop
      vertex -38.1513 1.08156 0.8
      vertex -38.1513 1.08156 -0.8
      vertex -38.1513 -1.08156 0.8
    endloop
  endfacet
  facet normal -1 2.22045e-16 0
    outer loop
      vertex -38.1513 -1.08156 0.8
      vertex -38.1513 1.08156 -0.8
      vertex -38.1513 -1.08156 -0.8
    endloop
  endfacet
  facet normal -0.809017 0.587785 0
    outer loop
      vertex -38.1513 -1.08156 0.8
      vertex -38.1513 -1.08156 -0.8
      vertex -39.4228 -2.83156 0.8
    endloop
  endfacet
  facet normal -0.809017 0.587785 0
    outer loop
      vertex -39.4228 -2.83156 0.8
      vertex -38.1513 -1.08156 -0.8
      vertex -39.4228 -2.83156 -0.8
    endloop
  endfacet
  facet normal 0 0 1
    outer loop
      vertex 41.43 -8.43375 0.8
      vertex 41.48 -8.45 0.8
      vertex 46.4468 -6.83619 0.8
    endloop
  endfacet
  facet normal 0 0 1
    outer loop
      vertex 48.48 -1 0.8
      vertex 41.43 -8.43375 0.8
      vertex 49.5164 -2.61119 0.8
    endloop
  endfacet
  facet normal 0 0 1
    outer loop
      vertex 49.5164 -2.61119 0.8
      vertex 41.43 -8.43375 0.8
      vertex 46.4468 -6.83619 0.8
    endloop
  endfacet
  facet normal 0 0 1
    outer loop
      vertex 41.43 -8.45 0.8
      vertex 41.43 -8.43375 0.8
      vertex 22.5614 -8.45 0.8
    endloop
  endfacet
  facet normal 0 0 1
    outer loop
      vertex 48.48 -1 0.8
      vertex 43.8164 -3.21584 0.8
      vertex 41.43 -8.43375 0.8
    endloop
  endfacet
  facet normal 0 0 1
    outer loop
      vertex 34.48 -1 0.8
      vertex 34.48 1 0.8
      vertex 22.5614 8.45 0.8
    endloop
  endfacet
  facet normal 0 0 1
    outer loop
      vertex 22.5614 8.45 0.8
      vertex 41.43 8.43375 0.8
      vertex 41.43 8.45 0.8
    endloop
  endfacet
  facet normal 0 0 1
    outer loop
      vertex 22.5614 -8.45 0.8
      vertex 41.43 -8.43375 0.8
      vertex 22.5614 8.45 0.8
    endloop
  endfacet
  facet normal 0 0 1
    outer loop
      vertex 48.48 -1 0.8
      vertex 45.2604 -1.22834 0.8
      vertex 43.8164 -3.21584 0.8
    endloop
  endfacet
  facet normal 0 0 1
    outer loop
      vertex 41.48 8.45 0.8
      vertex 41.48 3.975 0.8
      vertex 46.4468 6.83619 0.8
    endloop
  endfacet
  facet normal 0 0 1
    outer loop
      vertex 37.6995 -1 0.8
      vertex 34.48 -1 0.8
      vertex 37.6995 -1.22834 0.8
    endloop
  endfacet
  facet normal 0 0 1
    outer loop
      vertex 43.8164 3.21584 0.8
      vertex 45.2604 1.22834 0.8
      vertex 46.4468 6.83619 0.8
    endloop
  endfacet
  facet normal 0 0 1
    outer loop
      vertex 34.48 -1 0.8
      vertex 41.43 -8.43375 0.8
      vertex 39.1436 -3.21584 0.8
    endloop
  endfacet
  facet normal 0 0 1
    outer loop
      vertex 34.48 1 0.8
      vertex 37.6995 1 0.8
      vertex 22.5614 8.45 0.8
    endloop
  endfacet
  facet normal 0 0 1
    outer loop
      vertex 45.2604 1 0.8
      vertex 48.48 1 0.8
      vertex 49.5164 2.61119 0.8
    endloop
  endfacet
  facet normal 0 0 1
    outer loop
      vertex 39.1436 3.21584 0.8
      vertex 41.48 8.45 0.8
      vertex 41.43 8.43375 0.8
    endloop
  endfacet
  facet normal 0 0 1
    outer loop
      vertex 22.5614 8.45 0.8
      vertex 41.43 -8.43375 0.8
      vertex 34.48 -1 0.8
    endloop
  endfacet
  facet normal 0 0 1
    outer loop
      vertex 37.6995 1.22834 0.8
      vertex 39.1436 3.21584 0.8
      vertex 41.43 8.43375 0.8
    endloop
  endfacet
  facet normal 0 0 1
    outer loop
      vertex 22.5614 8.45 0.8
      vertex 37.6995 1.22834 0.8
      vertex 41.43 8.43375 0.8
    endloop
  endfacet
  facet normal 0 0 1
    outer loop
      vertex 22.5614 8.45 0.8
      vertex 37.6995 1 0.8
      vertex 37.6995 1.22834 0.8
    endloop
  endfacet
  facet normal 0 0 1
    outer loop
      vertex 37.6995 -1.22834 0.8
      vertex 34.48 -1 0.8
      vertex 39.1436 -3.21584 0.8
    endloop
  endfacet
  facet normal 0 0 1
    outer loop
      vertex 46.4468 6.83619 0.8
      vertex 41.48 3.975 0.8
      vertex 43.8164 3.21584 0.8
    endloop
  endfacet
  facet normal 0 0 1
    outer loop
      vertex 46.4468 6.83619 0.8
      vertex 45.2604 1.22834 0.8
      vertex 49.5164 2.61119 0.8
    endloop
  endfacet
  facet normal 0 0 1
    outer loop
      vertex 45.2604 1.22834 0.8
      vertex 45.2604 1 0.8
      vertex 49.5164 2.61119 0.8
    endloop
  endfacet
  facet normal 0 0 1
    outer loop
      vertex 49.5164 2.61119 0.8
      vertex 48.48 1 0.8
      vertex 49.5164 -2.61119 0.8
    endloop
  endfacet
  facet normal 0 0 1
    outer loop
      vertex 48.48 1 0.8
      vertex 48.48 -1 0.8
      vertex 49.5164 -2.61119 0.8
    endloop
  endfacet
  facet normal 0 0 1
    outer loop
      vertex 48.48 -1 0.8
      vertex 45.2604 -1 0.8
      vertex 45.2604 -1.22834 0.8
    endloop
  endfacet
  facet normal 0 0 1
    outer loop
      vertex 43.8164 -3.21584 0.8
      vertex 41.48 -3.975 0.8
      vertex 41.43 -8.43375 0.8
    endloop
  endfacet
  facet normal 0 0 1
    outer loop
      vertex 41.48 -3.975 0.8
      vertex 39.1436 -3.21584 0.8
      vertex 41.43 -8.43375 0.8
    endloop
  endfacet
  facet normal 0 0 1
    outer loop
      vertex 39.1436 3.21584 0.8
      vertex 41.48 3.975 0.8
      vertex 41.48 8.45 0.8
    endloop
  endfacet
  facet normal -0.707107 1.57009e-16 0.707107
    outer loop
      vertex 22.5614 8.45 0.8
      vertex 21.43 8.45 -0.331371
      vertex 21.43 -8.45 -0.331371
    endloop
  endfacet
  facet normal -0.707107 1.57009e-16 0.707107
    outer loop
      vertex 22.5614 -8.45 0.8
      vertex 22.5614 8.45 0.8
      vertex 21.43 -8.45 -0.331371
    endloop
  endfacet
  facet normal 0.707107 -1.57009e-16 0.707107
    outer loop
      vertex 21.43 8.45 -0.331371
      vertex 20.2986 8.45 0.8
      vertex 20.2986 -8.45 0.8
    endloop
  endfacet
  facet normal 0.707107 -1.57009e-16 0.707107
    outer loop
      vertex 21.43 -8.45 -0.331371
      vertex 21.43 8.45 -0.331371
      vertex 20.2986 -8.45 0.8
    endloop
  endfacet
  facet normal 0 0 1
    outer loop
      vertex 1 -7 0.8
      vertex 20.2986 -8.45 0.8
      vertex 20.2986 8.45 0.8
    endloop
  endfacet
  facet normal 0 0 1
    outer loop
      vertex -20.2986 -8.45 0.8
      vertex 20.2986 -8.45 0.8
      vertex 1 -7 0.8
    endloop
  endfacet
  facet normal 0 0 1
    outer loop
      vertex -20.2986 -8.45 0.8
      vertex 1 -7 0.8
      vertex -1 -7 0.8
    endloop
  endfacet
  facet normal 0 0 1
    outer loop
      vertex -20.2986 -8.45 0.8
      vertex -1 -7 0.8
      vertex -1 -4.67508 0.8
    endloop
  endfacet
  facet normal 0 0 1
    outer loop
      vertex 7 -1 0.8
      vertex 4.75528 -1 0.8
      vertex 4.75528 -1.54509 0.8
    endloop
  endfacet
  facet normal 0 0 1
    outer loop
      vertex -20.2986 -8.45 0.8
      vertex -1 -4.67508 0.8
      vertex -2.93893 -4.04508 0.8
    endloop
  endfacet
  facet normal 0 0 1
    outer loop
      vertex 4.75528 1 0.8
      vertex 7 1 0.8
      vertex 20.2986 8.45 0.8
    endloop
  endfacet
  facet normal 0 0 1
    outer loop
      vertex -7 -1 0.8
      vertex -20.2986 -8.45 0.8
      vertex -4.75528 -1.54508 0.8
    endloop
  endfacet
  facet normal 0 0 1
    outer loop
      vertex -7 -1 0.8
      vertex -7 1 0.8
      vertex -20.2986 8.45 0.8
    endloop
  endfacet
  facet normal 0 0 1
    outer loop
      vertex -20.2986 8.45 0.8
      vertex -20.2986 -8.45 0.8
      vertex -7 -1 0.8
    endloop
  endfacet
  facet normal 0 0 1
    outer loop
      vertex 1 7 0.8
      vertex 1 4.67508 0.8
      vertex 20.2986 8.45 0.8
    endloop
  endfacet
  facet normal 0 0 1
    outer loop
      vertex 7 1 0.8
      vertex 7 -1 0.8
      vertex 20.2986 8.45 0.8
    endloop
  endfacet
  facet normal 0 0 1
    outer loop
      vertex -7 1 0.8
      vertex -4.75528 1 0.8
      vertex -4.75528 1.54509 0.8
    endloop
  endfacet
  facet normal 0 0 1
    outer loop
      vertex -20.2986 8.45 0.8
      vertex -7 1 0.8
      vertex -2.93893 4.04508 0.8
    endloop
  endfacet
  facet normal 0 0 1
    outer loop
      vertex -20.2986 8.45 0.8
      vertex -2.93893 4.04508 0.8
      vertex -1 4.67508 0.8
    endloop
  endfacet
  facet normal 0 0 1
    outer loop
      vertex -20.2986 8.45 0.8
      vertex -1 7 0.8
      vertex 20.2986 8.45 0.8
    endloop
  endfacet
  facet normal 0 0 1
    outer loop
      vertex -20.2986 8.45 0.8
      vertex -1 4.67508 0.8
      vertex -1 7 0.8
    endloop
  endfacet
  facet normal 0 0 1
    outer loop
      vertex -1 7 0.8
      vertex 1 7 0.8
      vertex 20.2986 8.45 0.8
    endloop
  endfacet
  facet normal 0 0 1
    outer loop
      vertex 1 4.67508 0.8
      vertex 2.93893 4.04508 0.8
      vertex 20.2986 8.45 0.8
    endloop
  endfacet
  facet normal 0 0 1
    outer loop
      vertex -4.75528 -1 0.8
      vertex -7 -1 0.8
      vertex -4.75528 -1.54508 0.8
    endloop
  endfacet
  facet normal 0 0 1
    outer loop
      vertex 4.75528 1.54508 0.8
      vertex 4.75528 1 0.8
      vertex 20.2986 8.45 0.8
    endloop
  endfacet
  facet normal 0 0 1
    outer loop
      vertex -2.93893 -4.04508 0.8
      vertex -4.75528 -1.54508 0.8
      vertex -20.2986 -8.45 0.8
    endloop
  endfacet
  facet normal 0 0 1
    outer loop
      vertex 4.75528 -1.54509 0.8
      vertex 2.93893 -4.04508 0.8
      vertex 7 -1 0.8
    endloop
  endfacet
  facet normal 0 0 1
    outer loop
      vertex -4.75528 1.54509 0.8
      vertex -2.93893 4.04508 0.8
      vertex -7 1 0.8
    endloop
  endfacet
  facet normal 0 0 1
    outer loop
      vertex 2.93893 -4.04508 0.8
      vertex 20.2986 8.45 0.8
      vertex 7 -1 0.8
    endloop
  endfacet
  facet normal 0 0 1
    outer loop
      vertex 2.93893 -4.04508 0.8
      vertex 1 -7 0.8
      vertex 20.2986 8.45 0.8
    endloop
  endfacet
  facet normal 0 0 1
    outer loop
      vertex 1 -4.67508 0.8
      vertex 1 -7 0.8
      vertex 2.93893 -4.04508 0.8
    endloop
  endfacet
  facet normal 0 0 1
    outer loop
      vertex 2.93893 4.04508 0.8
      vertex 4.75528 1.54508 0.8
      vertex 20.2986 8.45 0.8
    endloop
  endfacet
  facet normal -0.707107 1.57009e-16 0.707107
    outer loop
      vertex -20.2986 8.45 0.8
      vertex -21.43 8.45 -0.331371
      vertex -21.43 -8.45 -0.331371
    endloop
  endfacet
  facet normal -0.707107 1.57009e-16 0.707107
    outer loop
      vertex -20.2986 -8.45 0.8
      vertex -20.2986 8.45 0.8
      vertex -21.43 -8.45 -0.331371
    endloop
  endfacet
  facet normal 0.707107 -1.57009e-16 0.707107
    outer loop
      vertex -21.43 8.45 -0.331371
      vertex -22.5614 8.45 0.8
      vertex -22.5614 -8.45 0.8
    endloop
  endfacet
  facet normal 0.707107 -1.57009e-16 0.707107
    outer loop
      vertex -21.43 -8.45 -0.331371
      vertex -21.43 8.45 -0.331371
      vertex -22.5614 -8.45 0.8
    endloop
  endfacet
  facet normal 0 0 1
    outer loop
      vertex -41.43 -8.45 0.8
      vertex -22.5614 -8.45 0.8
      vertex -22.5614 8.45 0.8
    endloop
  endfacet
  facet normal 0 0 1
    outer loop
      vertex -41.43 -8.43375 0.8
      vertex -41.43 -8.45 0.8
      vertex -22.5614 8.45 0.8
    endloop
  endfacet
  facet normal 0 0 1
    outer loop
      vertex -39.4228 -2.83156 0.8
      vertex -41.43 -8.43375 0.8
      vertex -22.5614 8.45 0.8
    endloop
  endfacet
  facet normal 0 0 1
    outer loop
      vertex -41.43 8.45 0.8
      vertex -41.43 8.43375 0.8
      vertex -22.5614 8.45 0.8
    endloop
  endfacet
  facet normal 0 0 1
    outer loop
      vertex -39.4228 -2.83156 0.8
      vertex -41.48 -3.5 0.8
      vertex -41.43 -8.43375 0.8
    endloop
  endfacet
  facet normal 0 0 1
    outer loop
      vertex -44.8087 1.08156 0.8
      vertex -43.5372 2.83156 0.8
      vertex -46.4468 6.83619 0.8
    endloop
  endfacet
  facet normal 0 0 1
    outer loop
      vertex -41.48 3.5 0.8
      vertex -41.43 8.43375 0.8
      vertex -41.48 8.45 0.8
    endloop
  endfacet
  facet normal 0 0 1
    outer loop
      vertex -38.1513 -1.08156 0.8
      vertex -39.4228 -2.83156 0.8
      vertex -22.5614 8.45 0.8
    endloop
  endfacet
  facet normal 0 0 1
    outer loop
      vertex -44.8087 -1.08156 0.8
      vertex -49.5164 2.61119 0.8
      vertex -43.5372 -2.83156 0.8
    endloop
  endfacet
  facet normal 0 0 1
    outer loop
      vertex -46.4468 6.83619 0.8
      vertex -49.5164 2.61119 0.8
      vertex -44.8087 -1.08156 0.8
    endloop
  endfacet
  facet normal 0 0 1
    outer loop
      vertex -41.48 3.5 0.8
      vertex -39.4228 2.83156 0.8
      vertex -41.43 8.43375 0.8
    endloop
  endfacet
  facet normal 0 0 1
    outer loop
      vertex -46.4468 6.83619 0.8
      vertex -44.8087 -1.08156 0.8
      vertex -44.8087 1.08156 0.8
    endloop
  endfacet
  facet normal 0 0 1
    outer loop
      vertex -41.48 8.45 0.8
      vertex -46.4468 6.83619 0.8
      vertex -43.5372 2.83156 0.8
    endloop
  endfacet
  facet normal 0 0 1
    outer loop
      vertex -41.48 8.45 0.8
      vertex -43.5372 2.83156 0.8
      vertex -41.48 3.5 0.8
    endloop
  endfacet
  facet normal 0 0 1
    outer loop
      vertex -41.43 8.43375 0.8
      vertex -39.4228 2.83156 0.8
      vertex -22.5614 8.45 0.8
    endloop
  endfacet
  facet normal 0 0 1
    outer loop
      vertex -39.4228 2.83156 0.8
      vertex -38.1513 1.08156 0.8
      vertex -22.5614 8.45 0.8
    endloop
  endfacet
  facet normal 0 0 1
    outer loop
      vertex -38.1513 1.08156 0.8
      vertex -38.1513 -1.08156 0.8
      vertex -22.5614 8.45 0.8
    endloop
  endfacet
  facet normal 0 0 1
    outer loop
      vertex -41.48 -8.45 0.8
      vertex -49.5164 -2.61119 0.8
      vertex -46.4468 -6.83619 0.8
    endloop
  endfacet
  facet normal 0 0 1
    outer loop
      vertex -41.48 -8.45 0.8
      vertex -49.5164 2.61119 0.8
      vertex -49.5164 -2.61119 0.8
    endloop
  endfacet
  facet normal 0 0 1
    outer loop
      vertex -41.48 -8.45 0.8
      vertex -43.5372 -2.83156 0.8
      vertex -49.5164 2.61119 0.8
    endloop
  endfacet
  facet normal 0 0 1
    outer loop
      vertex -41.48 -3.5 0.8
      vertex -43.5372 -2.83156 0.8
      vertex -41.48 -8.45 0.8
    endloop
  endfacet
  facet normal 0 0 1
    outer loop
      vertex -41.48 -8.45 0.8
      vertex -41.43 -8.43375 0.8
      vertex -41.48 -3.5 0.8
    endloop
  endfacet
endsolid OpenSCAD_Model
